<svg width="48" height="52" viewBox="0 0 48 52" fill="none" xmlns="http://www.w3.org/2000/svg">
<g clip-path="url(#clip0_1254_20338)">
<path d="M10.9043 0H8.72461V2.1647H10.9043V0Z" fill="#2B2B2B"/>
<path d="M13.0898 0H10.9102V2.1647H13.0898V0Z" fill="#2B2B2B"/>
<path d="M15.2695 0H13.0898V2.1647H15.2695V0Z" fill="#2B2B2B"/>
<path d="M17.4492 0H15.2695V2.1647H17.4492V0Z" fill="#2B2B2B"/>
<path d="M19.6347 0H17.4551V2.1647H19.6347V0Z" fill="#2B2B2B"/>
<path d="M21.8144 0H19.6348V2.1647H21.8144V0Z" fill="#2B2B2B"/>
<path d="M24 0H21.8203V2.1647H24V0Z" fill="#2B2B2B"/>
<path d="M26.1797 0H24V2.1647H26.1797V0Z" fill="#2B2B2B"/>
<path d="M28.3593 0H26.1797V2.1647H28.3593V0Z" fill="#2B2B2B"/>
<path d="M30.5449 0H28.3652V2.1647H30.5449V0Z" fill="#2B2B2B"/>
<path d="M32.7246 0H30.5449V2.1647H32.7246V0Z" fill="#2B2B2B"/>
<path d="M34.9043 0H32.7246V2.1647H34.9043V0Z" fill="#2B2B2B"/>
<path d="M37.0898 0H34.9102V2.1647H37.0898V0Z" fill="#2B2B2B"/>
<path d="M39.2695 0H37.0898V2.1647H39.2695V0Z" fill="#2B2B2B"/>
<path d="M8.72457 2.16455H6.54492V4.32925H8.72457V2.16455Z" fill="#2B2B2B"/>
<path d="M10.9043 2.16455H8.72461V4.32925H10.9043V2.16455Z" fill="#B2F2FF"/>
<path d="M13.0898 2.16455H10.9102V4.32925H13.0898V2.16455Z" fill="#B2F2FF"/>
<path d="M15.2695 2.16455H13.0898V4.32925H15.2695V2.16455Z" fill="#B2F2FF"/>
<path d="M17.4492 2.16455H15.2695V4.32925H17.4492V2.16455Z" fill="#B2F2FF"/>
<path d="M19.6347 2.16455H17.4551V4.32925H19.6347V2.16455Z" fill="#B2F2FF"/>
<path d="M21.8144 2.16455H19.6348V4.32925H21.8144V2.16455Z" fill="#B2F2FF"/>
<path d="M24 2.16455H21.8203V4.32925H24V2.16455Z" fill="#B2F2FF"/>
<path d="M26.1797 2.16455H24V4.32925H26.1797V2.16455Z" fill="#B2F2FF"/>
<path d="M28.3593 2.16455H26.1797V4.32925H28.3593V2.16455Z" fill="#B2F2FF"/>
<path d="M30.5449 2.16455H28.3652V4.32925H30.5449V2.16455Z" fill="#B2F2FF"/>
<path d="M32.7246 2.16455H30.5449V4.32925H32.7246V2.16455Z" fill="#B2F2FF"/>
<path d="M34.9043 2.16455H32.7246V4.32925H34.9043V2.16455Z" fill="#B2F2FF"/>
<path d="M37.0898 2.16455H34.9102V4.32925H37.0898V2.16455Z" fill="#B2F2FF"/>
<path d="M39.2695 2.16455H37.0898V4.32925H39.2695V2.16455Z" fill="#B2F2FF"/>
<path d="M41.4492 2.16455H39.2695V4.32925H41.4492V2.16455Z" fill="#2B2B2B"/>
<path d="M6.54489 4.33545H4.36523V6.50014H6.54489V4.33545Z" fill="#2B2B2B"/>
<path d="M8.72457 4.33545H6.54492V6.50014H8.72457V4.33545Z" fill="#B2F2FF"/>
<path d="M10.9043 4.33545H8.72461V6.50014H10.9043V4.33545Z" fill="#91C7FF"/>
<path d="M13.0898 4.33545H10.9102V6.50014H13.0898V4.33545Z" fill="#91C7FF"/>
<path d="M15.2695 4.33545H13.0898V6.50014H15.2695V4.33545Z" fill="#91C7FF"/>
<path d="M17.4492 4.33545H15.2695V6.50014H17.4492V4.33545Z" fill="#91C7FF"/>
<path d="M19.6347 4.33545H17.4551V6.50014H19.6347V4.33545Z" fill="#91C7FF"/>
<path d="M21.8144 4.33545H19.6348V6.50014H21.8144V4.33545Z" fill="#91C7FF"/>
<path d="M24 4.33545H21.8203V6.50014H24V4.33545Z" fill="#91C7FF"/>
<path d="M26.1797 4.33545H24V6.50014H26.1797V4.33545Z" fill="#91C7FF"/>
<path d="M28.3593 4.33545H26.1797V6.50014H28.3593V4.33545Z" fill="#91C7FF"/>
<path d="M30.5449 4.33545H28.3652V6.50014H30.5449V4.33545Z" fill="#91C7FF"/>
<path d="M32.7246 4.33545H30.5449V6.50014H32.7246V4.33545Z" fill="#91C7FF"/>
<path d="M34.9043 4.33545H32.7246V6.50014H34.9043V4.33545Z" fill="#91C7FF"/>
<path d="M37.0898 4.33545H34.9102V6.50014H37.0898V4.33545Z" fill="#91C7FF"/>
<path d="M39.2695 4.33545H37.0898V6.50014H39.2695V4.33545Z" fill="#91C7FF"/>
<path d="M41.4492 4.33545H39.2695V6.50014H41.4492V4.33545Z" fill="#B2F2FF"/>
<path d="M43.6347 4.33545H41.4551V6.50014H43.6347V4.33545Z" fill="#2B2B2B"/>
<path d="M4.35934 6.5H2.17969V8.6647H4.35934V6.5Z" fill="#2B2B2B"/>
<path d="M6.54489 6.5H4.36523V8.6647H6.54489V6.5Z" fill="#6F96FF"/>
<path d="M8.72457 6.5H6.54492V8.6647H8.72457V6.5Z" fill="#91C7FF"/>
<path d="M10.9043 6.5H8.72461V8.6647H10.9043V6.5Z" fill="#91C7FF"/>
<path d="M13.0898 6.5H10.9102V8.6647H13.0898V6.5Z" fill="#91C7FF"/>
<path d="M15.2695 6.5H13.0898V8.6647H15.2695V6.5Z" fill="#91C7FF"/>
<path d="M17.4492 6.5H15.2695V8.6647H17.4492V6.5Z" fill="#91C7FF"/>
<path d="M19.6347 6.5H17.4551V8.6647H19.6347V6.5Z" fill="#91C7FF"/>
<path d="M21.8144 6.5H19.6348V8.6647H21.8144V6.5Z" fill="#91C7FF"/>
<path d="M24 6.5H21.8203V8.6647H24V6.5Z" fill="#91C7FF"/>
<path d="M26.1797 6.5H24V8.6647H26.1797V6.5Z" fill="#91C7FF"/>
<path d="M28.3593 6.5H26.1797V8.6647H28.3593V6.5Z" fill="#91C7FF"/>
<path d="M30.5449 6.5H28.3652V8.6647H30.5449V6.5Z" fill="#91C7FF"/>
<path d="M32.7246 6.5H30.5449V8.6647H32.7246V6.5Z" fill="#91C7FF"/>
<path d="M34.9043 6.5H32.7246V8.6647H34.9043V6.5Z" fill="#91C7FF"/>
<path d="M37.0898 6.5H34.9102V8.6647H37.0898V6.5Z" fill="#91C7FF"/>
<path d="M39.2695 6.5H37.0898V8.6647H39.2695V6.5Z" fill="#91C7FF"/>
<path d="M41.4492 6.5H39.2695V8.6647H41.4492V6.5Z" fill="#91C7FF"/>
<path d="M43.6347 6.5H41.4551V8.6647H43.6347V6.5Z" fill="#6F96FF"/>
<path d="M45.8144 6.5H43.6348V8.6647H45.8144V6.5Z" fill="#2B2B2B"/>
<path d="M2.17965 8.66455H0V10.8292H2.17965V8.66455Z" fill="#2B2B2B"/>
<path d="M4.35934 8.66455H2.17969V10.8292H4.35934V8.66455Z" fill="#6F96FF"/>
<path d="M6.54489 8.66455H4.36523V10.8292H6.54489V8.66455Z" fill="#566EE3"/>
<path d="M8.72457 8.66455H6.54492V10.8292H8.72457V8.66455Z" fill="#91C7FF"/>
<path d="M10.9043 8.66455H8.72461V10.8292H10.9043V8.66455Z" fill="#91C7FF"/>
<path d="M13.0898 8.66455H10.9102V10.8292H13.0898V8.66455Z" fill="#91C7FF"/>
<path d="M15.2695 8.66455H13.0898V10.8292H15.2695V8.66455Z" fill="#91C7FF"/>
<path d="M17.4492 8.66455H15.2695V10.8292H17.4492V8.66455Z" fill="#91C7FF"/>
<path d="M19.6347 8.66455H17.4551V10.8292H19.6347V8.66455Z" fill="#91C7FF"/>
<path d="M21.8144 8.66455H19.6348V10.8292H21.8144V8.66455Z" fill="#91C7FF"/>
<path d="M24 8.66455H21.8203V10.8292H24V8.66455Z" fill="#91C7FF"/>
<path d="M26.1797 8.66455H24V10.8292H26.1797V8.66455Z" fill="#91C7FF"/>
<path d="M28.3593 8.66455H26.1797V10.8292H28.3593V8.66455Z" fill="#91C7FF"/>
<path d="M30.5449 8.66455H28.3652V10.8292H30.5449V8.66455Z" fill="#91C7FF"/>
<path d="M32.7246 8.66455H30.5449V10.8292H32.7246V8.66455Z" fill="#91C7FF"/>
<path d="M34.9043 8.66455H32.7246V10.8292H34.9043V8.66455Z" fill="#91C7FF"/>
<path d="M37.0898 8.66455H34.9102V10.8292H37.0898V8.66455Z" fill="#91C7FF"/>
<path d="M39.2695 8.66455H37.0898V10.8292H39.2695V8.66455Z" fill="#91C7FF"/>
<path d="M41.4492 8.66455H39.2695V10.8292H41.4492V8.66455Z" fill="#91C7FF"/>
<path d="M43.6347 8.66455H41.4551V10.8292H43.6347V8.66455Z" fill="#566EE3"/>
<path d="M45.8144 8.66455H43.6348V10.8292H45.8144V8.66455Z" fill="#6F96FF"/>
<path d="M47.9941 8.66455H45.8145V10.8292H47.9941V8.66455Z" fill="#2B2B2B"/>
<path d="M2.17965 10.8354H0V13.0001H2.17965V10.8354Z" fill="#2B2B2B"/>
<path d="M4.35934 10.8354H2.17969V13.0001H4.35934V10.8354Z" fill="#566EE3"/>
<path d="M6.54489 10.8354H4.36523V13.0001H6.54489V10.8354Z" fill="#566EE3"/>
<path d="M8.72457 10.8354H6.54492V13.0001H8.72457V10.8354Z" fill="#91C7FF"/>
<path d="M10.9043 10.8354H8.72461V13.0001H10.9043V10.8354Z" fill="#91C7FF"/>
<path d="M13.0898 10.8354H10.9102V13.0001H13.0898V10.8354Z" fill="#91C7FF"/>
<path d="M15.2695 10.8354H13.0898V13.0001H15.2695V10.8354Z" fill="#91C7FF"/>
<path d="M17.4492 10.8354H15.2695V13.0001H17.4492V10.8354Z" fill="#91C7FF"/>
<path d="M19.6347 10.8354H17.4551V13.0001H19.6347V10.8354Z" fill="#91C7FF"/>
<path d="M21.8144 10.8354H19.6348V13.0001H21.8144V10.8354Z" fill="#91C7FF"/>
<path d="M24 10.8354H21.8203V13.0001H24V10.8354Z" fill="#91C7FF"/>
<path d="M26.1797 10.8354H24V13.0001H26.1797V10.8354Z" fill="#91C7FF"/>
<path d="M28.3593 10.8354H26.1797V13.0001H28.3593V10.8354Z" fill="#91C7FF"/>
<path d="M30.5449 10.8354H28.3652V13.0001H30.5449V10.8354Z" fill="#91C7FF"/>
<path d="M32.7246 10.8354H30.5449V13.0001H32.7246V10.8354Z" fill="#91C7FF"/>
<path d="M34.9043 10.8354H32.7246V13.0001H34.9043V10.8354Z" fill="#91C7FF"/>
<path d="M37.0898 10.8354H34.9102V13.0001H37.0898V10.8354Z" fill="#91C7FF"/>
<path d="M39.2695 10.8354H37.0898V13.0001H39.2695V10.8354Z" fill="#91C7FF"/>
<path d="M41.4492 10.8354H39.2695V13.0001H41.4492V10.8354Z" fill="#91C7FF"/>
<path d="M43.6347 10.8354H41.4551V13.0001H43.6347V10.8354Z" fill="#566EE3"/>
<path d="M45.8144 10.8354H43.6348V13.0001H45.8144V10.8354Z" fill="#566EE3"/>
<path d="M47.9941 10.8354H45.8145V13.0001H47.9941V10.8354Z" fill="#2B2B2B"/>
<path d="M2.17965 13H0V15.1647H2.17965V13Z" fill="#2B2B2B"/>
<path d="M4.35934 13H2.17969V15.1647H4.35934V13Z" fill="#566EE3"/>
<path d="M6.54489 13H4.36523V15.1647H6.54489V13Z" fill="#566EE3"/>
<path d="M8.72457 13H6.54492V15.1647H8.72457V13Z" fill="#91C7FF"/>
<path d="M10.9043 13H8.72461V15.1647H10.9043V13Z" fill="#91C7FF"/>
<path d="M13.0898 13H10.9102V15.1647H13.0898V13Z" fill="#91C7FF"/>
<path d="M15.2695 13H13.0898V15.1647H15.2695V13Z" fill="#91C7FF"/>
<path d="M17.4492 13H15.2695V15.1647H17.4492V13Z" fill="#91C7FF"/>
<path d="M19.6347 13H17.4551V15.1647H19.6347V13Z" fill="#91C7FF"/>
<path d="M21.8144 13H19.6348V15.1647H21.8144V13Z" fill="#91C7FF"/>
<path d="M24 13H21.8203V15.1647H24V13Z" fill="#91C7FF"/>
<path d="M26.1797 13H24V15.1647H26.1797V13Z" fill="#91C7FF"/>
<path d="M28.3593 13H26.1797V15.1647H28.3593V13Z" fill="#91C7FF"/>
<path d="M30.5449 13H28.3652V15.1647H30.5449V13Z" fill="#91C7FF"/>
<path d="M32.7246 13H30.5449V15.1647H32.7246V13Z" fill="#91C7FF"/>
<path d="M34.9043 13H32.7246V15.1647H34.9043V13Z" fill="#91C7FF"/>
<path d="M37.0898 13H34.9102V15.1647H37.0898V13Z" fill="#91C7FF"/>
<path d="M39.2695 13H37.0898V15.1647H39.2695V13Z" fill="#91C7FF"/>
<path d="M41.4492 13H39.2695V15.1647H41.4492V13Z" fill="#91C7FF"/>
<path d="M43.6347 13H41.4551V15.1647H43.6347V13Z" fill="#566EE3"/>
<path d="M45.8144 13H43.6348V15.1647H45.8144V13Z" fill="#566EE3"/>
<path d="M47.9941 13H45.8145V15.1647H47.9941V13Z" fill="#2B2B2B"/>
<path d="M2.17965 15.1646H0V17.3292H2.17965V15.1646Z" fill="#2B2B2B"/>
<path d="M4.35934 15.1646H2.17969V17.3292H4.35934V15.1646Z" fill="#566EE3"/>
<path d="M6.54489 15.1646H4.36523V17.3292H6.54489V15.1646Z" fill="#566EE3"/>
<path d="M8.72457 15.1646H6.54492V17.3292H8.72457V15.1646Z" fill="#91C7FF"/>
<path d="M10.9043 15.1646H8.72461V17.3292H10.9043V15.1646Z" fill="#91C7FF"/>
<path d="M13.0898 15.1646H10.9102V17.3292H13.0898V15.1646Z" fill="#91C7FF"/>
<path d="M15.2695 15.1646H13.0898V17.3292H15.2695V15.1646Z" fill="#91C7FF"/>
<path d="M17.4492 15.1646H15.2695V17.3292H17.4492V15.1646Z" fill="#91C7FF"/>
<path d="M19.6347 15.1646H17.4551V17.3292H19.6347V15.1646Z" fill="#91C7FF"/>
<path d="M21.8144 15.1646H19.6348V17.3292H21.8144V15.1646Z" fill="#91C7FF"/>
<path d="M24 15.1646H21.8203V17.3292H24V15.1646Z" fill="#91C7FF"/>
<path d="M26.1797 15.1646H24V17.3292H26.1797V15.1646Z" fill="#91C7FF"/>
<path d="M28.3593 15.1646H26.1797V17.3292H28.3593V15.1646Z" fill="#91C7FF"/>
<path d="M30.5449 15.1646H28.3652V17.3292H30.5449V15.1646Z" fill="#91C7FF"/>
<path d="M32.7246 15.1646H30.5449V17.3292H32.7246V15.1646Z" fill="#91C7FF"/>
<path d="M34.9043 15.1646H32.7246V17.3292H34.9043V15.1646Z" fill="#91C7FF"/>
<path d="M37.0898 15.1646H34.9102V17.3292H37.0898V15.1646Z" fill="#91C7FF"/>
<path d="M39.2695 15.1646H37.0898V17.3292H39.2695V15.1646Z" fill="#91C7FF"/>
<path d="M41.4492 15.1646H39.2695V17.3292H41.4492V15.1646Z" fill="#91C7FF"/>
<path d="M43.6347 15.1646H41.4551V17.3292H43.6347V15.1646Z" fill="#566EE3"/>
<path d="M45.8144 15.1646H43.6348V17.3292H45.8144V15.1646Z" fill="#566EE3"/>
<path d="M47.9941 15.1646H45.8145V17.3292H47.9941V15.1646Z" fill="#2B2B2B"/>
<path d="M2.17965 17.3354H0V19.5001H2.17965V17.3354Z" fill="#2B2B2B"/>
<path d="M4.35934 17.3354H2.17969V19.5001H4.35934V17.3354Z" fill="#566EE3"/>
<path d="M6.54489 17.3354H4.36523V19.5001H6.54489V17.3354Z" fill="#566EE3"/>
<path d="M8.72457 17.3354H6.54492V19.5001H8.72457V17.3354Z" fill="#91C7FF"/>
<path d="M10.9043 17.3354H8.72461V19.5001H10.9043V17.3354Z" fill="#91C7FF"/>
<path d="M13.0898 17.3354H10.9102V19.5001H13.0898V17.3354Z" fill="#91C7FF"/>
<path d="M15.2695 17.3354H13.0898V19.5001H15.2695V17.3354Z" fill="#91C7FF"/>
<path d="M17.4492 17.3354H15.2695V19.5001H17.4492V17.3354Z" fill="#91C7FF"/>
<path d="M19.6347 17.3354H17.4551V19.5001H19.6347V17.3354Z" fill="#91C7FF"/>
<path d="M21.8144 17.3354H19.6348V19.5001H21.8144V17.3354Z" fill="#91C7FF"/>
<path d="M24 17.3354H21.8203V19.5001H24V17.3354Z" fill="#91C7FF"/>
<path d="M26.1797 17.3354H24V19.5001H26.1797V17.3354Z" fill="#91C7FF"/>
<path d="M28.3593 17.3354H26.1797V19.5001H28.3593V17.3354Z" fill="#91C7FF"/>
<path d="M30.5449 17.3354H28.3652V19.5001H30.5449V17.3354Z" fill="#91C7FF"/>
<path d="M32.7246 17.3354H30.5449V19.5001H32.7246V17.3354Z" fill="#91C7FF"/>
<path d="M34.9043 17.3354H32.7246V19.5001H34.9043V17.3354Z" fill="#91C7FF"/>
<path d="M37.0898 17.3354H34.9102V19.5001H37.0898V17.3354Z" fill="#91C7FF"/>
<path d="M39.2695 17.3354H37.0898V19.5001H39.2695V17.3354Z" fill="#91C7FF"/>
<path d="M41.4492 17.3354H39.2695V19.5001H41.4492V17.3354Z" fill="#91C7FF"/>
<path d="M43.6347 17.3354H41.4551V19.5001H43.6347V17.3354Z" fill="#566EE3"/>
<path d="M45.8144 17.3354H43.6348V19.5001H45.8144V17.3354Z" fill="#566EE3"/>
<path d="M47.9941 17.3354H45.8145V19.5001H47.9941V17.3354Z" fill="#2B2B2B"/>
<path d="M2.17965 19.5H0V21.6647H2.17965V19.5Z" fill="#2B2B2B"/>
<path d="M4.35934 19.5H2.17969V21.6647H4.35934V19.5Z" fill="#566EE3"/>
<path d="M6.54489 19.5H4.36523V21.6647H6.54489V19.5Z" fill="#566EE3"/>
<path d="M8.72457 19.5H6.54492V21.6647H8.72457V19.5Z" fill="#91C7FF"/>
<path d="M10.9043 19.5H8.72461V21.6647H10.9043V19.5Z" fill="#91C7FF"/>
<path d="M13.0898 19.5H10.9102V21.6647H13.0898V19.5Z" fill="#91C7FF"/>
<path d="M15.2695 19.5H13.0898V21.6647H15.2695V19.5Z" fill="#91C7FF"/>
<path d="M17.4492 19.5H15.2695V21.6647H17.4492V19.5Z" fill="#91C7FF"/>
<path d="M19.6347 19.5H17.4551V21.6647H19.6347V19.5Z" fill="#91C7FF"/>
<path d="M21.8144 19.5H19.6348V21.6647H21.8144V19.5Z" fill="#91C7FF"/>
<path d="M24 19.5H21.8203V21.6647H24V19.5Z" fill="#91C7FF"/>
<path d="M26.1797 19.5H24V21.6647H26.1797V19.5Z" fill="#91C7FF"/>
<path d="M28.3593 19.5H26.1797V21.6647H28.3593V19.5Z" fill="#91C7FF"/>
<path d="M30.5449 19.5H28.3652V21.6647H30.5449V19.5Z" fill="#91C7FF"/>
<path d="M32.7246 19.5H30.5449V21.6647H32.7246V19.5Z" fill="#91C7FF"/>
<path d="M34.9043 19.5H32.7246V21.6647H34.9043V19.5Z" fill="#91C7FF"/>
<path d="M37.0898 19.5H34.9102V21.6647H37.0898V19.5Z" fill="#91C7FF"/>
<path d="M39.2695 19.5H37.0898V21.6647H39.2695V19.5Z" fill="#91C7FF"/>
<path d="M41.4492 19.5H39.2695V21.6647H41.4492V19.5Z" fill="#91C7FF"/>
<path d="M43.6347 19.5H41.4551V21.6647H43.6347V19.5Z" fill="#566EE3"/>
<path d="M45.8144 19.5H43.6348V21.6647H45.8144V19.5Z" fill="#566EE3"/>
<path d="M47.9941 19.5H45.8145V21.6647H47.9941V19.5Z" fill="#2B2B2B"/>
<path d="M2.17965 21.6704H0V23.8351H2.17965V21.6704Z" fill="#2B2B2B"/>
<path d="M4.35934 21.6704H2.17969V23.8351H4.35934V21.6704Z" fill="#566EE3"/>
<path d="M6.54489 21.6704H4.36523V23.8351H6.54489V21.6704Z" fill="#566EE3"/>
<path d="M8.72457 21.6704H6.54492V23.8351H8.72457V21.6704Z" fill="#91C7FF"/>
<path d="M10.9043 21.6704H8.72461V23.8351H10.9043V21.6704Z" fill="#91C7FF"/>
<path d="M13.0898 21.6704H10.9102V23.8351H13.0898V21.6704Z" fill="#91C7FF"/>
<path d="M15.2695 21.6704H13.0898V23.8351H15.2695V21.6704Z" fill="#91C7FF"/>
<path d="M17.4492 21.6704H15.2695V23.8351H17.4492V21.6704Z" fill="#91C7FF"/>
<path d="M19.6347 21.6704H17.4551V23.8351H19.6347V21.6704Z" fill="#91C7FF"/>
<path d="M21.8144 21.6704H19.6348V23.8351H21.8144V21.6704Z" fill="#91C7FF"/>
<path d="M24 21.6704H21.8203V23.8351H24V21.6704Z" fill="#91C7FF"/>
<path d="M26.1797 21.6704H24V23.8351H26.1797V21.6704Z" fill="#91C7FF"/>
<path d="M28.3593 21.6704H26.1797V23.8351H28.3593V21.6704Z" fill="#91C7FF"/>
<path d="M30.5449 21.6704H28.3652V23.8351H30.5449V21.6704Z" fill="#91C7FF"/>
<path d="M32.7246 21.6704H30.5449V23.8351H32.7246V21.6704Z" fill="#91C7FF"/>
<path d="M34.9043 21.6704H32.7246V23.8351H34.9043V21.6704Z" fill="#91C7FF"/>
<path d="M37.0898 21.6704H34.9102V23.8351H37.0898V21.6704Z" fill="#91C7FF"/>
<path d="M39.2695 21.6704H37.0898V23.8351H39.2695V21.6704Z" fill="#91C7FF"/>
<path d="M41.4492 21.6704H39.2695V23.8351H41.4492V21.6704Z" fill="#91C7FF"/>
<path d="M43.6347 21.6704H41.4551V23.8351H43.6347V21.6704Z" fill="#566EE3"/>
<path d="M45.8144 21.6704H43.6348V23.8351H45.8144V21.6704Z" fill="#566EE3"/>
<path d="M47.9941 21.6704H45.8145V23.8351H47.9941V21.6704Z" fill="#2B2B2B"/>
<path d="M2.17965 23.8354H0V26.0001H2.17965V23.8354Z" fill="#2B2B2B"/>
<path d="M4.35934 23.8354H2.17969V26.0001H4.35934V23.8354Z" fill="#566EE3"/>
<path d="M6.54489 23.8354H4.36523V26.0001H6.54489V23.8354Z" fill="#566EE3"/>
<path d="M8.72457 23.8354H6.54492V26.0001H8.72457V23.8354Z" fill="#91C7FF"/>
<path d="M10.9043 23.8354H8.72461V26.0001H10.9043V23.8354Z" fill="#91C7FF"/>
<path d="M13.0898 23.8354H10.9102V26.0001H13.0898V23.8354Z" fill="#91C7FF"/>
<path d="M15.2695 23.8354H13.0898V26.0001H15.2695V23.8354Z" fill="#91C7FF"/>
<path d="M17.4492 23.8354H15.2695V26.0001H17.4492V23.8354Z" fill="#91C7FF"/>
<path d="M19.6347 23.8354H17.4551V26.0001H19.6347V23.8354Z" fill="#91C7FF"/>
<path d="M21.8144 23.8354H19.6348V26.0001H21.8144V23.8354Z" fill="#91C7FF"/>
<path d="M24 23.8354H21.8203V26.0001H24V23.8354Z" fill="#91C7FF"/>
<path d="M26.1797 23.8354H24V26.0001H26.1797V23.8354Z" fill="#91C7FF"/>
<path d="M28.3593 23.8354H26.1797V26.0001H28.3593V23.8354Z" fill="#91C7FF"/>
<path d="M30.5449 23.8354H28.3652V26.0001H30.5449V23.8354Z" fill="#91C7FF"/>
<path d="M32.7246 23.8354H30.5449V26.0001H32.7246V23.8354Z" fill="#91C7FF"/>
<path d="M34.9043 23.8354H32.7246V26.0001H34.9043V23.8354Z" fill="#91C7FF"/>
<path d="M37.0898 23.8354H34.9102V26.0001H37.0898V23.8354Z" fill="#91C7FF"/>
<path d="M39.2695 23.8354H37.0898V26.0001H39.2695V23.8354Z" fill="#91C7FF"/>
<path d="M41.4492 23.8354H39.2695V26.0001H41.4492V23.8354Z" fill="#91C7FF"/>
<path d="M43.6347 23.8354H41.4551V26.0001H43.6347V23.8354Z" fill="#566EE3"/>
<path d="M45.8144 23.8354H43.6348V26.0001H45.8144V23.8354Z" fill="#566EE3"/>
<path d="M47.9941 23.8354H45.8145V26.0001H47.9941V23.8354Z" fill="#2B2B2B"/>
<path d="M2.17965 26H0V28.1647H2.17965V26Z" fill="#2B2B2B"/>
<path d="M4.35934 26H2.17969V28.1647H4.35934V26Z" fill="#566EE3"/>
<path d="M6.54489 26H4.36523V28.1647H6.54489V26Z" fill="#566EE3"/>
<path d="M8.72457 26H6.54492V28.1647H8.72457V26Z" fill="#91C7FF"/>
<path d="M10.9043 26H8.72461V28.1647H10.9043V26Z" fill="#91C7FF"/>
<path d="M13.0898 26H10.9102V28.1647H13.0898V26Z" fill="#91C7FF"/>
<path d="M15.2695 26H13.0898V28.1647H15.2695V26Z" fill="#91C7FF"/>
<path d="M17.4492 26H15.2695V28.1647H17.4492V26Z" fill="#91C7FF"/>
<path d="M19.6347 26H17.4551V28.1647H19.6347V26Z" fill="#91C7FF"/>
<path d="M21.8144 26H19.6348V28.1647H21.8144V26Z" fill="#91C7FF"/>
<path d="M24 26H21.8203V28.1647H24V26Z" fill="#91C7FF"/>
<path d="M26.1797 26H24V28.1647H26.1797V26Z" fill="#91C7FF"/>
<path d="M28.3593 26H26.1797V28.1647H28.3593V26Z" fill="#91C7FF"/>
<path d="M30.5449 26H28.3652V28.1647H30.5449V26Z" fill="#91C7FF"/>
<path d="M32.7246 26H30.5449V28.1647H32.7246V26Z" fill="#91C7FF"/>
<path d="M34.9043 26H32.7246V28.1647H34.9043V26Z" fill="#91C7FF"/>
<path d="M37.0898 26H34.9102V28.1647H37.0898V26Z" fill="#91C7FF"/>
<path d="M39.2695 26H37.0898V28.1647H39.2695V26Z" fill="#91C7FF"/>
<path d="M41.4492 26H39.2695V28.1647H41.4492V26Z" fill="#91C7FF"/>
<path d="M43.6347 26H41.4551V28.1647H43.6347V26Z" fill="#566EE3"/>
<path d="M45.8144 26H43.6348V28.1647H45.8144V26Z" fill="#566EE3"/>
<path d="M47.9941 26H45.8145V28.1647H47.9941V26Z" fill="#2B2B2B"/>
<path d="M2.17965 28.1704H0V30.3351H2.17965V28.1704Z" fill="#2B2B2B"/>
<path d="M4.35934 28.1704H2.17969V30.3351H4.35934V28.1704Z" fill="#566EE3"/>
<path d="M6.54489 28.1704H4.36523V30.3351H6.54489V28.1704Z" fill="#566EE3"/>
<path d="M8.72457 28.1704H6.54492V30.3351H8.72457V28.1704Z" fill="#B2F2FF"/>
<path d="M10.9043 28.1704H8.72461V30.3351H10.9043V28.1704Z" fill="#91C7FF"/>
<path d="M13.0898 28.1704H10.9102V30.3351H13.0898V28.1704Z" fill="#91C7FF"/>
<path d="M15.2695 28.1704H13.0898V30.3351H15.2695V28.1704Z" fill="#91C7FF"/>
<path d="M17.4492 28.1704H15.2695V30.3351H17.4492V28.1704Z" fill="#91C7FF"/>
<path d="M19.6347 28.1704H17.4551V30.3351H19.6347V28.1704Z" fill="#91C7FF"/>
<path d="M21.8144 28.1704H19.6348V30.3351H21.8144V28.1704Z" fill="#91C7FF"/>
<path d="M24 28.1704H21.8203V30.3351H24V28.1704Z" fill="#91C7FF"/>
<path d="M26.1797 28.1704H24V30.3351H26.1797V28.1704Z" fill="#91C7FF"/>
<path d="M28.3593 28.1704H26.1797V30.3351H28.3593V28.1704Z" fill="#91C7FF"/>
<path d="M30.5449 28.1704H28.3652V30.3351H30.5449V28.1704Z" fill="#91C7FF"/>
<path d="M32.7246 28.1704H30.5449V30.3351H32.7246V28.1704Z" fill="#91C7FF"/>
<path d="M34.9043 28.1704H32.7246V30.3351H34.9043V28.1704Z" fill="#91C7FF"/>
<path d="M37.0898 28.1704H34.9102V30.3351H37.0898V28.1704Z" fill="#91C7FF"/>
<path d="M39.2695 28.1704H37.0898V30.3351H39.2695V28.1704Z" fill="#91C7FF"/>
<path d="M41.4492 28.1704H39.2695V30.3351H41.4492V28.1704Z" fill="#B2F2FF"/>
<path d="M43.6347 28.1704H41.4551V30.3351H43.6347V28.1704Z" fill="#566EE3"/>
<path d="M45.8144 28.1704H43.6348V30.3351H45.8144V28.1704Z" fill="#566EE3"/>
<path d="M47.9941 28.1704H45.8145V30.3351H47.9941V28.1704Z" fill="#2B2B2B"/>
<path d="M2.17965 30.3354H0V32.5001H2.17965V30.3354Z" fill="#2B2B2B"/>
<path d="M4.35934 30.3354H2.17969V32.5001H4.35934V30.3354Z" fill="#566EE3"/>
<path d="M6.54489 30.3354H4.36523V32.5001H6.54489V30.3354Z" fill="#566EE3"/>
<path d="M8.72457 30.3354H6.54492V32.5001H8.72457V30.3354Z" fill="#6F96FF"/>
<path d="M10.9043 30.3354H8.72461V32.5001H10.9043V30.3354Z" fill="#B2F2FF"/>
<path d="M13.0898 30.3354H10.9102V32.5001H13.0898V30.3354Z" fill="#B2F2FF"/>
<path d="M15.2695 30.3354H13.0898V32.5001H15.2695V30.3354Z" fill="#B2F2FF"/>
<path d="M17.4492 30.3354H15.2695V32.5001H17.4492V30.3354Z" fill="#B2F2FF"/>
<path d="M19.6347 30.3354H17.4551V32.5001H19.6347V30.3354Z" fill="#B2F2FF"/>
<path d="M21.8144 30.3354H19.6348V32.5001H21.8144V30.3354Z" fill="#B2F2FF"/>
<path d="M24 30.3354H21.8203V32.5001H24V30.3354Z" fill="#B2F2FF"/>
<path d="M26.1797 30.3354H24V32.5001H26.1797V30.3354Z" fill="#B2F2FF"/>
<path d="M28.3593 30.3354H26.1797V32.5001H28.3593V30.3354Z" fill="#B2F2FF"/>
<path d="M30.5449 30.3354H28.3652V32.5001H30.5449V30.3354Z" fill="#B2F2FF"/>
<path d="M32.7246 30.3354H30.5449V32.5001H32.7246V30.3354Z" fill="#B2F2FF"/>
<path d="M34.9043 30.3354H32.7246V32.5001H34.9043V30.3354Z" fill="#B2F2FF"/>
<path d="M37.0898 30.3354H34.9102V32.5001H37.0898V30.3354Z" fill="#B2F2FF"/>
<path d="M39.2695 30.3354H37.0898V32.5001H39.2695V30.3354Z" fill="#B2F2FF"/>
<path d="M41.4492 30.3354H39.2695V32.5001H41.4492V30.3354Z" fill="#6F96FF"/>
<path d="M43.6347 30.3354H41.4551V32.5001H43.6347V30.3354Z" fill="#566EE3"/>
<path d="M45.8144 30.3354H43.6348V32.5001H45.8144V30.3354Z" fill="#566EE3"/>
<path d="M47.9941 30.3354H45.8145V32.5001H47.9941V30.3354Z" fill="#2B2B2B"/>
<path d="M2.17965 32.5H0V34.6647H2.17965V32.5Z" fill="#2B2B2B"/>
<path d="M4.35934 32.5H2.17969V34.6647H4.35934V32.5Z" fill="#566EE3"/>
<path d="M6.54489 32.5H4.36523V34.6647H6.54489V32.5Z" fill="#566EE3"/>
<path d="M8.72457 32.5H6.54492V34.6647H8.72457V32.5Z" fill="#6F96FF"/>
<path d="M10.9043 32.5H8.72461V34.6647H10.9043V32.5Z" fill="#6F96FF"/>
<path d="M13.0898 32.5H10.9102V34.6647H13.0898V32.5Z" fill="#6F96FF"/>
<path d="M15.2695 32.5H13.0898V34.6647H15.2695V32.5Z" fill="#6F96FF"/>
<path d="M17.4492 32.5H15.2695V34.6647H17.4492V32.5Z" fill="#6F96FF"/>
<path d="M19.6347 32.5H17.4551V34.6647H19.6347V32.5Z" fill="#6F96FF"/>
<path d="M21.8144 32.5H19.6348V34.6647H21.8144V32.5Z" fill="#6F96FF"/>
<path d="M24 32.5H21.8203V34.6647H24V32.5Z" fill="#6F96FF"/>
<path d="M26.1797 32.5H24V34.6647H26.1797V32.5Z" fill="#6F96FF"/>
<path d="M28.3593 32.5H26.1797V34.6647H28.3593V32.5Z" fill="#6F96FF"/>
<path d="M30.5449 32.5H28.3652V34.6647H30.5449V32.5Z" fill="#6F96FF"/>
<path d="M32.7246 32.5H30.5449V34.6647H32.7246V32.5Z" fill="#6F96FF"/>
<path d="M34.9043 32.5H32.7246V34.6647H34.9043V32.5Z" fill="#6F96FF"/>
<path d="M37.0898 32.5H34.9102V34.6647H37.0898V32.5Z" fill="#6F96FF"/>
<path d="M39.2695 32.5H37.0898V34.6647H39.2695V32.5Z" fill="#6F96FF"/>
<path d="M41.4492 32.5H39.2695V34.6647H41.4492V32.5Z" fill="#6F96FF"/>
<path d="M43.6347 32.5H41.4551V34.6647H43.6347V32.5Z" fill="#566EE3"/>
<path d="M45.8144 32.5H43.6348V34.6647H45.8144V32.5Z" fill="#566EE3"/>
<path d="M47.9941 32.5H45.8145V34.6647H47.9941V32.5Z" fill="#2B2B2B"/>
<path d="M2.17965 34.6704H0V36.8351H2.17965V34.6704Z" fill="#2B2B2B"/>
<path d="M4.35934 34.6704H2.17969V36.8351H4.35934V34.6704Z" fill="#566EE3"/>
<path d="M6.54489 34.6704H4.36523V36.8351H6.54489V34.6704Z" fill="#566EE3"/>
<path d="M8.72457 34.6704H6.54492V36.8351H8.72457V34.6704Z" fill="#6F96FF"/>
<path d="M10.9043 34.6704H8.72461V36.8351H10.9043V34.6704Z" fill="#6F96FF"/>
<path d="M13.0898 34.6704H10.9102V36.8351H13.0898V34.6704Z" fill="#6F96FF"/>
<path d="M15.2695 34.6704H13.0898V36.8351H15.2695V34.6704Z" fill="#6F96FF"/>
<path d="M17.4492 34.6704H15.2695V36.8351H17.4492V34.6704Z" fill="#6F96FF"/>
<path d="M19.6347 34.6704H17.4551V36.8351H19.6347V34.6704Z" fill="#6F96FF"/>
<path d="M21.8144 34.6704H19.6348V36.8351H21.8144V34.6704Z" fill="#6F96FF"/>
<path d="M24 34.6704H21.8203V36.8351H24V34.6704Z" fill="#6F96FF"/>
<path d="M26.1797 34.6704H24V36.8351H26.1797V34.6704Z" fill="#6F96FF"/>
<path d="M28.3593 34.6704H26.1797V36.8351H28.3593V34.6704Z" fill="#6F96FF"/>
<path d="M30.5449 34.6704H28.3652V36.8351H30.5449V34.6704Z" fill="#6F96FF"/>
<path d="M32.7246 34.6704H30.5449V36.8351H32.7246V34.6704Z" fill="#6F96FF"/>
<path d="M34.9043 34.6704H32.7246V36.8351H34.9043V34.6704Z" fill="#6F96FF"/>
<path d="M37.0898 34.6704H34.9102V36.8351H37.0898V34.6704Z" fill="#6F96FF"/>
<path d="M39.2695 34.6704H37.0898V36.8351H39.2695V34.6704Z" fill="#6F96FF"/>
<path d="M41.4492 34.6704H39.2695V36.8351H41.4492V34.6704Z" fill="#6F96FF"/>
<path d="M43.6347 34.6704H41.4551V36.8351H43.6347V34.6704Z" fill="#566EE3"/>
<path d="M45.8144 34.6704H43.6348V36.8351H45.8144V34.6704Z" fill="#566EE3"/>
<path d="M47.9941 34.6704H45.8145V36.8351H47.9941V34.6704Z" fill="#2B2B2B"/>
<path d="M2.17965 36.8354H0V39.0001H2.17965V36.8354Z" fill="#2B2B2B"/>
<path d="M4.35934 36.8354H2.17969V39.0001H4.35934V36.8354Z" fill="#566EE3"/>
<path d="M6.54489 36.8354H4.36523V39.0001H6.54489V36.8354Z" fill="#566EE3"/>
<path d="M8.72457 36.8354H6.54492V39.0001H8.72457V36.8354Z" fill="#4F5180"/>
<path d="M10.9043 36.8354H8.72461V39.0001H10.9043V36.8354Z" fill="#6F96FF"/>
<path d="M13.0898 36.8354H10.9102V39.0001H13.0898V36.8354Z" fill="#6F96FF"/>
<path d="M15.2695 36.8354H13.0898V39.0001H15.2695V36.8354Z" fill="#6F96FF"/>
<path d="M17.4492 36.8354H15.2695V39.0001H17.4492V36.8354Z" fill="#6F96FF"/>
<path d="M19.6347 36.8354H17.4551V39.0001H19.6347V36.8354Z" fill="#6F96FF"/>
<path d="M21.8144 36.8354H19.6348V39.0001H21.8144V36.8354Z" fill="#6F96FF"/>
<path d="M24 36.8354H21.8203V39.0001H24V36.8354Z" fill="#6F96FF"/>
<path d="M26.1797 36.8354H24V39.0001H26.1797V36.8354Z" fill="#6F96FF"/>
<path d="M28.3593 36.8354H26.1797V39.0001H28.3593V36.8354Z" fill="#6F96FF"/>
<path d="M30.5449 36.8354H28.3652V39.0001H30.5449V36.8354Z" fill="#6F96FF"/>
<path d="M32.7246 36.8354H30.5449V39.0001H32.7246V36.8354Z" fill="#6F96FF"/>
<path d="M34.9043 36.8354H32.7246V39.0001H34.9043V36.8354Z" fill="#6F96FF"/>
<path d="M37.0898 36.8354H34.9102V39.0001H37.0898V36.8354Z" fill="#6F96FF"/>
<path d="M39.2695 36.8354H37.0898V39.0001H39.2695V36.8354Z" fill="#6F96FF"/>
<path d="M41.4492 36.8354H39.2695V39.0001H41.4492V36.8354Z" fill="#4F5180"/>
<path d="M43.6347 36.8354H41.4551V39.0001H43.6347V36.8354Z" fill="#566EE3"/>
<path d="M45.8144 36.8354H43.6348V39.0001H45.8144V36.8354Z" fill="#566EE3"/>
<path d="M47.9941 36.8354H45.8145V39.0001H47.9941V36.8354Z" fill="#2B2B2B"/>
<path d="M2.17965 39H0V41.1647H2.17965V39Z" fill="#2B2B2B"/>
<path d="M4.35934 39H2.17969V41.1647H4.35934V39Z" fill="#566EE3"/>
<path d="M6.54489 39H4.36523V41.1647H6.54489V39Z" fill="#566EE3"/>
<path d="M8.72457 39H6.54492V41.1647H8.72457V39Z" fill="#566EE3"/>
<path d="M10.9043 39H8.72461V41.1647H10.9043V39Z" fill="#4F5180"/>
<path d="M13.0898 39H10.9102V41.1647H13.0898V39Z" fill="#4F5180"/>
<path d="M15.2695 39H13.0898V41.1647H15.2695V39Z" fill="#4F5180"/>
<path d="M17.4492 39H15.2695V41.1647H17.4492V39Z" fill="#4F5180"/>
<path d="M19.6347 39H17.4551V41.1647H19.6347V39Z" fill="#4F5180"/>
<path d="M21.8144 39H19.6348V41.1647H21.8144V39Z" fill="#4F5180"/>
<path d="M24 39H21.8203V41.1647H24V39Z" fill="#4F5180"/>
<path d="M26.1797 39H24V41.1647H26.1797V39Z" fill="#4F5180"/>
<path d="M28.3593 39H26.1797V41.1647H28.3593V39Z" fill="#4F5180"/>
<path d="M30.5449 39H28.3652V41.1647H30.5449V39Z" fill="#4F5180"/>
<path d="M32.7246 39H30.5449V41.1647H32.7246V39Z" fill="#4F5180"/>
<path d="M34.9043 39H32.7246V41.1647H34.9043V39Z" fill="#4F5180"/>
<path d="M37.0898 39H34.9102V41.1647H37.0898V39Z" fill="#4F5180"/>
<path d="M39.2695 39H37.0898V41.1647H39.2695V39Z" fill="#4F5180"/>
<path d="M41.4492 39H39.2695V41.1647H41.4492V39Z" fill="#566EE3"/>
<path d="M43.6347 39H41.4551V41.1647H43.6347V39Z" fill="#566EE3"/>
<path d="M45.8144 39H43.6348V41.1647H45.8144V39Z" fill="#566EE3"/>
<path d="M47.9941 39H45.8145V41.1647H47.9941V39Z" fill="#2B2B2B"/>
<path d="M2.17965 41.1704H0V43.3351H2.17965V41.1704Z" fill="#2B2B2B"/>
<path d="M4.35934 41.1704H2.17969V43.3351H4.35934V41.1704Z" fill="#6F96FF"/>
<path d="M6.54489 41.1704H4.36523V43.3351H6.54489V41.1704Z" fill="#566EE3"/>
<path d="M8.72457 41.1704H6.54492V43.3351H8.72457V41.1704Z" fill="#566EE3"/>
<path d="M10.9043 41.1704H8.72461V43.3351H10.9043V41.1704Z" fill="#566EE3"/>
<path d="M13.0898 41.1704H10.9102V43.3351H13.0898V41.1704Z" fill="#566EE3"/>
<path d="M15.2695 41.1704H13.0898V43.3351H15.2695V41.1704Z" fill="#566EE3"/>
<path d="M17.4492 41.1704H15.2695V43.3351H17.4492V41.1704Z" fill="#566EE3"/>
<path d="M19.6347 41.1704H17.4551V43.3351H19.6347V41.1704Z" fill="#566EE3"/>
<path d="M21.8144 41.1704H19.6348V43.3351H21.8144V41.1704Z" fill="#566EE3"/>
<path d="M24 41.1704H21.8203V43.3351H24V41.1704Z" fill="#566EE3"/>
<path d="M26.1797 41.1704H24V43.3351H26.1797V41.1704Z" fill="#566EE3"/>
<path d="M28.3593 41.1704H26.1797V43.3351H28.3593V41.1704Z" fill="#566EE3"/>
<path d="M30.5449 41.1704H28.3652V43.3351H30.5449V41.1704Z" fill="#566EE3"/>
<path d="M32.7246 41.1704H30.5449V43.3351H32.7246V41.1704Z" fill="#566EE3"/>
<path d="M34.9043 41.1704H32.7246V43.3351H34.9043V41.1704Z" fill="#566EE3"/>
<path d="M37.0898 41.1704H34.9102V43.3351H37.0898V41.1704Z" fill="#566EE3"/>
<path d="M39.2695 41.1704H37.0898V43.3351H39.2695V41.1704Z" fill="#566EE3"/>
<path d="M41.4492 41.1704H39.2695V43.3351H41.4492V41.1704Z" fill="#566EE3"/>
<path d="M43.6347 41.1704H41.4551V43.3351H43.6347V41.1704Z" fill="#566EE3"/>
<path d="M45.8144 41.1704H43.6348V43.3351H45.8144V41.1704Z" fill="#6F96FF"/>
<path d="M47.9941 41.1704H45.8145V43.3351H47.9941V41.1704Z" fill="#2B2B2B"/>
<path d="M2.17965 43.3354H0V45.5001H2.17965V43.3354Z" fill="#2B2B2B"/>
<path d="M4.35934 43.3354H2.17969V45.5001H4.35934V43.3354Z" fill="#4F5180"/>
<path d="M6.54489 43.3354H4.36523V45.5001H6.54489V43.3354Z" fill="#6F96FF"/>
<path d="M8.72457 43.3354H6.54492V45.5001H8.72457V43.3354Z" fill="#6F96FF"/>
<path d="M10.9043 43.3354H8.72461V45.5001H10.9043V43.3354Z" fill="#6F96FF"/>
<path d="M13.0898 43.3354H10.9102V45.5001H13.0898V43.3354Z" fill="#6F96FF"/>
<path d="M15.2695 43.3354H13.0898V45.5001H15.2695V43.3354Z" fill="#6F96FF"/>
<path d="M17.4492 43.3354H15.2695V45.5001H17.4492V43.3354Z" fill="#6F96FF"/>
<path d="M19.6347 43.3354H17.4551V45.5001H19.6347V43.3354Z" fill="#6F96FF"/>
<path d="M21.8144 43.3354H19.6348V45.5001H21.8144V43.3354Z" fill="#6F96FF"/>
<path d="M24 43.3354H21.8203V45.5001H24V43.3354Z" fill="#6F96FF"/>
<path d="M26.1797 43.3354H24V45.5001H26.1797V43.3354Z" fill="#6F96FF"/>
<path d="M28.3593 43.3354H26.1797V45.5001H28.3593V43.3354Z" fill="#6F96FF"/>
<path d="M30.5449 43.3354H28.3652V45.5001H30.5449V43.3354Z" fill="#6F96FF"/>
<path d="M32.7246 43.3354H30.5449V45.5001H32.7246V43.3354Z" fill="#6F96FF"/>
<path d="M34.9043 43.3354H32.7246V45.5001H34.9043V43.3354Z" fill="#6F96FF"/>
<path d="M37.0898 43.3354H34.9102V45.5001H37.0898V43.3354Z" fill="#6F96FF"/>
<path d="M39.2695 43.3354H37.0898V45.5001H39.2695V43.3354Z" fill="#6F96FF"/>
<path d="M41.4492 43.3354H39.2695V45.5001H41.4492V43.3354Z" fill="#6F96FF"/>
<path d="M43.6347 43.3354H41.4551V45.5001H43.6347V43.3354Z" fill="#6F96FF"/>
<path d="M45.8144 43.3354H43.6348V45.5001H45.8144V43.3354Z" fill="#4F5180"/>
<path d="M47.9941 43.3354H45.8145V45.5001H47.9941V43.3354Z" fill="#2B2B2B"/>
<path d="M2.17965 45.5H0V47.6647H2.17965V45.5Z" fill="#2B2B2B"/>
<path d="M4.35934 45.5H2.17969V47.6647H4.35934V45.5Z" fill="#4F5180"/>
<path d="M6.54489 45.5H4.36523V47.6647H6.54489V45.5Z" fill="#4F5180"/>
<path d="M8.72457 45.5H6.54492V47.6647H8.72457V45.5Z" fill="#4F5180"/>
<path d="M10.9043 45.5H8.72461V47.6647H10.9043V45.5Z" fill="#4F5180"/>
<path d="M13.0898 45.5H10.9102V47.6647H13.0898V45.5Z" fill="#4F5180"/>
<path d="M15.2695 45.5H13.0898V47.6647H15.2695V45.5Z" fill="#4F5180"/>
<path d="M17.4492 45.5H15.2695V47.6647H17.4492V45.5Z" fill="#4F5180"/>
<path d="M19.6347 45.5H17.4551V47.6647H19.6347V45.5Z" fill="#4F5180"/>
<path d="M21.8144 45.5H19.6348V47.6647H21.8144V45.5Z" fill="#4F5180"/>
<path d="M24 45.5H21.8203V47.6647H24V45.5Z" fill="#4F5180"/>
<path d="M26.1797 45.5H24V47.6647H26.1797V45.5Z" fill="#4F5180"/>
<path d="M28.3593 45.5H26.1797V47.6647H28.3593V45.5Z" fill="#4F5180"/>
<path d="M30.5449 45.5H28.3652V47.6647H30.5449V45.5Z" fill="#4F5180"/>
<path d="M32.7246 45.5H30.5449V47.6647H32.7246V45.5Z" fill="#4F5180"/>
<path d="M34.9043 45.5H32.7246V47.6647H34.9043V45.5Z" fill="#4F5180"/>
<path d="M37.0898 45.5H34.9102V47.6647H37.0898V45.5Z" fill="#4F5180"/>
<path d="M39.2695 45.5H37.0898V47.6647H39.2695V45.5Z" fill="#4F5180"/>
<path d="M41.4492 45.5H39.2695V47.6647H41.4492V45.5Z" fill="#4F5180"/>
<path d="M43.6347 45.5H41.4551V47.6647H43.6347V45.5Z" fill="#4F5180"/>
<path d="M45.8144 45.5H43.6348V47.6647H45.8144V45.5Z" fill="#4F5180"/>
<path d="M47.9941 45.5H45.8145V47.6647H47.9941V45.5Z" fill="#2B2B2B"/>
<path d="M4.35934 47.6704H2.17969V49.8351H4.35934V47.6704Z" fill="#2B2B2B"/>
<path d="M6.54489 47.6704H4.36523V49.8351H6.54489V47.6704Z" fill="#4F5180"/>
<path d="M8.72457 47.6704H6.54492V49.8351H8.72457V47.6704Z" fill="#4F5180"/>
<path d="M10.9043 47.6704H8.72461V49.8351H10.9043V47.6704Z" fill="#4F5180"/>
<path d="M13.0898 47.6704H10.9102V49.8351H13.0898V47.6704Z" fill="#4F5180"/>
<path d="M15.2695 47.6704H13.0898V49.8351H15.2695V47.6704Z" fill="#4F5180"/>
<path d="M17.4492 47.6704H15.2695V49.8351H17.4492V47.6704Z" fill="#4F5180"/>
<path d="M19.6347 47.6704H17.4551V49.8351H19.6347V47.6704Z" fill="#4F5180"/>
<path d="M21.8144 47.6704H19.6348V49.8351H21.8144V47.6704Z" fill="#4F5180"/>
<path d="M24 47.6704H21.8203V49.8351H24V47.6704Z" fill="#4F5180"/>
<path d="M26.1797 47.6704H24V49.8351H26.1797V47.6704Z" fill="#4F5180"/>
<path d="M28.3593 47.6704H26.1797V49.8351H28.3593V47.6704Z" fill="#4F5180"/>
<path d="M30.5449 47.6704H28.3652V49.8351H30.5449V47.6704Z" fill="#4F5180"/>
<path d="M32.7246 47.6704H30.5449V49.8351H32.7246V47.6704Z" fill="#4F5180"/>
<path d="M34.9043 47.6704H32.7246V49.8351H34.9043V47.6704Z" fill="#4F5180"/>
<path d="M37.0898 47.6704H34.9102V49.8351H37.0898V47.6704Z" fill="#4F5180"/>
<path d="M39.2695 47.6704H37.0898V49.8351H39.2695V47.6704Z" fill="#4F5180"/>
<path d="M41.4492 47.6704H39.2695V49.8351H41.4492V47.6704Z" fill="#4F5180"/>
<path d="M43.6347 47.6704H41.4551V49.8351H43.6347V47.6704Z" fill="#4F5180"/>
<path d="M45.8144 47.6704H43.6348V49.8351H45.8144V47.6704Z" fill="#2B2B2B"/>
<path d="M6.54489 49.8354H4.36523V52.0001H6.54489V49.8354Z" fill="#2B2B2B"/>
<path d="M8.72457 49.8354H6.54492V52.0001H8.72457V49.8354Z" fill="#2B2B2B"/>
<path d="M10.9043 49.8354H8.72461V52.0001H10.9043V49.8354Z" fill="#2B2B2B"/>
<path d="M13.0898 49.8354H10.9102V52.0001H13.0898V49.8354Z" fill="#2B2B2B"/>
<path d="M15.2695 49.8354H13.0898V52.0001H15.2695V49.8354Z" fill="#2B2B2B"/>
<path d="M17.4492 49.8354H15.2695V52.0001H17.4492V49.8354Z" fill="#2B2B2B"/>
<path d="M19.6347 49.8354H17.4551V52.0001H19.6347V49.8354Z" fill="#2B2B2B"/>
<path d="M21.8144 49.8354H19.6348V52.0001H21.8144V49.8354Z" fill="#2B2B2B"/>
<path d="M24 49.8354H21.8203V52.0001H24V49.8354Z" fill="#2B2B2B"/>
<path d="M26.1797 49.8354H24V52.0001H26.1797V49.8354Z" fill="#2B2B2B"/>
<path d="M28.3593 49.8354H26.1797V52.0001H28.3593V49.8354Z" fill="#2B2B2B"/>
<path d="M30.5449 49.8354H28.3652V52.0001H30.5449V49.8354Z" fill="#2B2B2B"/>
<path d="M32.7246 49.8354H30.5449V52.0001H32.7246V49.8354Z" fill="#2B2B2B"/>
<path d="M34.9043 49.8354H32.7246V52.0001H34.9043V49.8354Z" fill="#2B2B2B"/>
<path d="M37.0898 49.8354H34.9102V52.0001H37.0898V49.8354Z" fill="#2B2B2B"/>
<path d="M39.2695 49.8354H37.0898V52.0001H39.2695V49.8354Z" fill="#2B2B2B"/>
<path d="M41.4492 49.8354H39.2695V52.0001H41.4492V49.8354Z" fill="#2B2B2B"/>
<path d="M43.6347 49.8354H41.4551V52.0001H43.6347V49.8354Z" fill="#2B2B2B"/>
<path d="M24.5537 8.0083H22.1895V10.3563H24.5537V8.0083Z" fill="#2B2B2B"/>
<path d="M26.919 8.0083H24.5547V10.3563H26.919V8.0083Z" fill="#2B2B2B"/>
<path d="M24.5537 10.3623H22.1895V12.7103H24.5537V10.3623Z" fill="#2B2B2B"/>
<path d="M26.919 10.3623H24.5547V12.7103H26.919V10.3623Z" fill="#2B2B2B"/>
<path d="M19.8193 12.7104H17.4551V15.0585H19.8193V12.7104Z" fill="#2B2B2B"/>
<path d="M22.1846 12.7104H19.8203V15.0585H22.1846V12.7104Z" fill="#2B2B2B"/>
<path d="M24.5537 12.7104H22.1895V15.0585H24.5537V12.7104Z" fill="#2B2B2B"/>
<path d="M26.919 12.7104H24.5547V15.0585H26.919V12.7104Z" fill="#2B2B2B"/>
<path d="M19.8193 15.0645H17.4551V17.4125H19.8193V15.0645Z" fill="#2B2B2B"/>
<path d="M22.1846 15.0645H19.8203V17.4125H22.1846V15.0645Z" fill="#2B2B2B"/>
<path d="M24.5537 15.0645H22.1895V17.4125H24.5537V15.0645Z" fill="#2B2B2B"/>
<path d="M26.919 15.0645H24.5547V17.4125H26.919V15.0645Z" fill="#2B2B2B"/>
<path d="M24.5537 17.4121H22.1895V19.7602H24.5537V17.4121Z" fill="#2B2B2B"/>
<path d="M26.919 17.4121H24.5547V19.7602H26.919V17.4121Z" fill="#2B2B2B"/>
<path d="M19.8193 19.7661H17.4551V22.1142H19.8193V19.7661Z" fill="#2B2B2B"/>
<path d="M22.1846 19.7661H19.8203V22.1142H22.1846V19.7661Z" fill="#2B2B2B"/>
<path d="M24.5537 19.7661H22.1895V22.1142H24.5537V19.7661Z" fill="#2B2B2B"/>
<path d="M26.919 19.7661H24.5547V22.1142H26.919V19.7661Z" fill="#2B2B2B"/>
<path d="M29.2881 19.79H26.9238V22.1381H29.2881V19.79Z" fill="#2B2B2B"/>
<path d="M19.8193 22.1143H17.4551V24.4623H19.8193V22.1143Z" fill="#2B2B2B"/>
<path d="M22.1846 22.1143H19.8203V24.4623H22.1846V22.1143Z" fill="#2B2B2B"/>
<path d="M24.5537 22.1382H22.1895V24.4862H24.5537V22.1382Z" fill="#2B2B2B"/>
<path d="M26.919 22.1382H24.5547V24.4862H26.919V22.1382Z" fill="#2B2B2B"/>
<path d="M29.2881 22.1382H26.9238V24.4862H29.2881V22.1382Z" fill="#2B2B2B"/>
</g>
<defs>
<clipPath id="clip0_1254_20338">
<rect width="48" height="52" fill="white"/>
</clipPath>
</defs>
</svg>
