<svg width="48" height="52" viewBox="0 0 48 52" fill="none" xmlns="http://www.w3.org/2000/svg">
<g clip-path="url(#clip0_1254_18773)">
<path d="M10.9043 0H8.72461V2.1647H10.9043V0Z" fill="#2B2B2B"/>
<path d="M13.0898 0H10.9102V2.1647H13.0898V0Z" fill="#2B2B2B"/>
<path d="M15.2695 0H13.0898V2.1647H15.2695V0Z" fill="#2B2B2B"/>
<path d="M17.4492 0H15.2695V2.1647H17.4492V0Z" fill="#2B2B2B"/>
<path d="M19.6347 0H17.4551V2.1647H19.6347V0Z" fill="#2B2B2B"/>
<path d="M21.8144 0H19.6348V2.1647H21.8144V0Z" fill="#2B2B2B"/>
<path d="M24 0H21.8203V2.1647H24V0Z" fill="#2B2B2B"/>
<path d="M26.1797 0H24V2.1647H26.1797V0Z" fill="#2B2B2B"/>
<path d="M28.3593 0H26.1797V2.1647H28.3593V0Z" fill="#2B2B2B"/>
<path d="M30.5449 0H28.3652V2.1647H30.5449V0Z" fill="#2B2B2B"/>
<path d="M32.7246 0H30.5449V2.1647H32.7246V0Z" fill="#2B2B2B"/>
<path d="M34.9043 0H32.7246V2.1647H34.9043V0Z" fill="#2B2B2B"/>
<path d="M37.0898 0H34.9102V2.1647H37.0898V0Z" fill="#2B2B2B"/>
<path d="M39.2695 0H37.0898V2.1647H39.2695V0Z" fill="#2B2B2B"/>
<path d="M8.72457 2.16455H6.54492V4.32925H8.72457V2.16455Z" fill="#2B2B2B"/>
<path d="M10.9043 2.16455H8.72461V4.32925H10.9043V2.16455Z" fill="#F5E982"/>
<path d="M13.0898 2.16455H10.9102V4.32925H13.0898V2.16455Z" fill="#F5E982"/>
<path d="M15.2695 2.16455H13.0898V4.32925H15.2695V2.16455Z" fill="#F5E982"/>
<path d="M17.4492 2.16455H15.2695V4.32925H17.4492V2.16455Z" fill="#F5E982"/>
<path d="M19.6347 2.16455H17.4551V4.32925H19.6347V2.16455Z" fill="#F5E982"/>
<path d="M21.8144 2.16455H19.6348V4.32925H21.8144V2.16455Z" fill="#F5E982"/>
<path d="M24 2.16455H21.8203V4.32925H24V2.16455Z" fill="#F5E982"/>
<path d="M26.1797 2.16455H24V4.32925H26.1797V2.16455Z" fill="#F5E982"/>
<path d="M28.3593 2.16455H26.1797V4.32925H28.3593V2.16455Z" fill="#F5E982"/>
<path d="M30.5449 2.16455H28.3652V4.32925H30.5449V2.16455Z" fill="#F5E982"/>
<path d="M32.7246 2.16455H30.5449V4.32925H32.7246V2.16455Z" fill="#F5E982"/>
<path d="M34.9043 2.16455H32.7246V4.32925H34.9043V2.16455Z" fill="#F5E982"/>
<path d="M37.0898 2.16455H34.9102V4.32925H37.0898V2.16455Z" fill="#F5E982"/>
<path d="M39.2695 2.16455H37.0898V4.32925H39.2695V2.16455Z" fill="#F5E982"/>
<path d="M41.4492 2.16455H39.2695V4.32925H41.4492V2.16455Z" fill="#2B2B2B"/>
<path d="M6.54489 4.33496H4.36523V6.49966H6.54489V4.33496Z" fill="#2B2B2B"/>
<path d="M8.72457 4.33496H6.54492V6.49966H8.72457V4.33496Z" fill="#F5E982"/>
<path d="M10.9043 4.33496H8.72461V6.49966H10.9043V4.33496Z" fill="#A5D060"/>
<path d="M13.0898 4.33496H10.9102V6.49966H13.0898V4.33496Z" fill="#A5D060"/>
<path d="M15.2695 4.33496H13.0898V6.49966H15.2695V4.33496Z" fill="#A5D060"/>
<path d="M17.4492 4.33496H15.2695V6.49966H17.4492V4.33496Z" fill="#A5D060"/>
<path d="M19.6347 4.33496H17.4551V6.49966H19.6347V4.33496Z" fill="#A5D060"/>
<path d="M21.8144 4.33496H19.6348V6.49966H21.8144V4.33496Z" fill="#A5D060"/>
<path d="M24 4.33496H21.8203V6.49966H24V4.33496Z" fill="#A5D060"/>
<path d="M26.1797 4.33496H24V6.49966H26.1797V4.33496Z" fill="#A5D060"/>
<path d="M28.3593 4.33496H26.1797V6.49966H28.3593V4.33496Z" fill="#A5D060"/>
<path d="M30.5449 4.33496H28.3652V6.49966H30.5449V4.33496Z" fill="#A5D060"/>
<path d="M32.7246 4.33496H30.5449V6.49966H32.7246V4.33496Z" fill="#A5D060"/>
<path d="M34.9043 4.33496H32.7246V6.49966H34.9043V4.33496Z" fill="#A5D060"/>
<path d="M37.0898 4.33496H34.9102V6.49966H37.0898V4.33496Z" fill="#A5D060"/>
<path d="M39.2695 4.33496H37.0898V6.49966H39.2695V4.33496Z" fill="#A5D060"/>
<path d="M41.4492 4.33496H39.2695V6.49966H41.4492V4.33496Z" fill="#F5E982"/>
<path d="M43.6347 4.33496H41.4551V6.49966H43.6347V4.33496Z" fill="#2B2B2B"/>
<path d="M4.35934 6.5H2.17969V8.6647H4.35934V6.5Z" fill="#2B2B2B"/>
<path d="M6.54489 6.5H4.36523V8.6647H6.54489V6.5Z" fill="#4CAF6E"/>
<path d="M8.72457 6.5H6.54492V8.6647H8.72457V6.5Z" fill="#A5D060"/>
<path d="M10.9043 6.5H8.72461V8.6647H10.9043V6.5Z" fill="#A5D060"/>
<path d="M13.0898 6.5H10.9102V8.6647H13.0898V6.5Z" fill="#A5D060"/>
<path d="M15.2695 6.5H13.0898V8.6647H15.2695V6.5Z" fill="#A5D060"/>
<path d="M17.4492 6.5H15.2695V8.6647H17.4492V6.5Z" fill="#A5D060"/>
<path d="M19.6347 6.5H17.4551V8.6647H19.6347V6.5Z" fill="#A5D060"/>
<path d="M21.8144 6.5H19.6348V8.6647H21.8144V6.5Z" fill="#A5D060"/>
<path d="M24 6.5H21.8203V8.6647H24V6.5Z" fill="#A5D060"/>
<path d="M26.1797 6.5H24V8.6647H26.1797V6.5Z" fill="#A5D060"/>
<path d="M28.3593 6.5H26.1797V8.6647H28.3593V6.5Z" fill="#A5D060"/>
<path d="M30.5449 6.5H28.3652V8.6647H30.5449V6.5Z" fill="#A5D060"/>
<path d="M32.7246 6.5H30.5449V8.6647H32.7246V6.5Z" fill="#A5D060"/>
<path d="M34.9043 6.5H32.7246V8.6647H34.9043V6.5Z" fill="#A5D060"/>
<path d="M37.0898 6.5H34.9102V8.6647H37.0898V6.5Z" fill="#A5D060"/>
<path d="M39.2695 6.5H37.0898V8.6647H39.2695V6.5Z" fill="#A5D060"/>
<path d="M41.4492 6.5H39.2695V8.6647H41.4492V6.5Z" fill="#A5D060"/>
<path d="M43.6347 6.5H41.4551V8.6647H43.6347V6.5Z" fill="#4CAF6E"/>
<path d="M45.8144 6.5H43.6348V8.6647H45.8144V6.5Z" fill="#2B2B2B"/>
<path d="M2.17965 8.66455H0V10.8292H2.17965V8.66455Z" fill="#2B2B2B"/>
<path d="M4.35934 8.66455H2.17969V10.8292H4.35934V8.66455Z" fill="#4CAF6E"/>
<path d="M6.54489 8.66455H4.36523V10.8292H6.54489V8.66455Z" fill="#25868B"/>
<path d="M8.72457 8.66455H6.54492V10.8292H8.72457V8.66455Z" fill="#A5D060"/>
<path d="M10.9043 8.66455H8.72461V10.8292H10.9043V8.66455Z" fill="#A5D060"/>
<path d="M13.0898 8.66455H10.9102V10.8292H13.0898V8.66455Z" fill="#A5D060"/>
<path d="M15.2695 8.66455H13.0898V10.8292H15.2695V8.66455Z" fill="#A5D060"/>
<path d="M17.4492 8.66455H15.2695V10.8292H17.4492V8.66455Z" fill="#A5D060"/>
<path d="M19.6347 8.66455H17.4551V10.8292H19.6347V8.66455Z" fill="#A5D060"/>
<path d="M21.8144 8.66455H19.6348V10.8292H21.8144V8.66455Z" fill="#A5D060"/>
<path d="M24 8.66455H21.8203V10.8292H24V8.66455Z" fill="#A5D060"/>
<path d="M26.1797 8.66455H24V10.8292H26.1797V8.66455Z" fill="#A5D060"/>
<path d="M28.3593 8.66455H26.1797V10.8292H28.3593V8.66455Z" fill="#A5D060"/>
<path d="M30.5449 8.66455H28.3652V10.8292H30.5449V8.66455Z" fill="#A5D060"/>
<path d="M32.7246 8.66455H30.5449V10.8292H32.7246V8.66455Z" fill="#A5D060"/>
<path d="M34.9043 8.66455H32.7246V10.8292H34.9043V8.66455Z" fill="#A5D060"/>
<path d="M37.0898 8.66455H34.9102V10.8292H37.0898V8.66455Z" fill="#A5D060"/>
<path d="M39.2695 8.66455H37.0898V10.8292H39.2695V8.66455Z" fill="#A5D060"/>
<path d="M41.4492 8.66455H39.2695V10.8292H41.4492V8.66455Z" fill="#A5D060"/>
<path d="M43.6347 8.66455H41.4551V10.8292H43.6347V8.66455Z" fill="#25868B"/>
<path d="M45.8144 8.66455H43.6348V10.8292H45.8144V8.66455Z" fill="#4CAF6E"/>
<path d="M47.9941 8.66455H45.8145V10.8292H47.9941V8.66455Z" fill="#2B2B2B"/>
<path d="M2.17965 10.835H0V12.9997H2.17965V10.835Z" fill="#2B2B2B"/>
<path d="M4.35934 10.835H2.17969V12.9997H4.35934V10.835Z" fill="#25868B"/>
<path d="M6.54489 10.835H4.36523V12.9997H6.54489V10.835Z" fill="#25868B"/>
<path d="M8.72457 10.835H6.54492V12.9997H8.72457V10.835Z" fill="#A5D060"/>
<path d="M10.9043 10.835H8.72461V12.9997H10.9043V10.835Z" fill="#A5D060"/>
<path d="M13.0898 10.835H10.9102V12.9997H13.0898V10.835Z" fill="#A5D060"/>
<path d="M15.2695 10.835H13.0898V12.9997H15.2695V10.835Z" fill="#A5D060"/>
<path d="M17.4492 10.835H15.2695V12.9997H17.4492V10.835Z" fill="#A5D060"/>
<path d="M19.6347 10.835H17.4551V12.9997H19.6347V10.835Z" fill="#A5D060"/>
<path d="M21.8144 10.835H19.6348V12.9997H21.8144V10.835Z" fill="#A5D060"/>
<path d="M24 10.835H21.8203V12.9997H24V10.835Z" fill="#A5D060"/>
<path d="M26.1797 10.835H24V12.9997H26.1797V10.835Z" fill="#A5D060"/>
<path d="M28.3593 10.835H26.1797V12.9997H28.3593V10.835Z" fill="#A5D060"/>
<path d="M30.5449 10.835H28.3652V12.9997H30.5449V10.835Z" fill="#A5D060"/>
<path d="M32.7246 10.835H30.5449V12.9997H32.7246V10.835Z" fill="#A5D060"/>
<path d="M34.9043 10.835H32.7246V12.9997H34.9043V10.835Z" fill="#A5D060"/>
<path d="M37.0898 10.835H34.9102V12.9997H37.0898V10.835Z" fill="#A5D060"/>
<path d="M39.2695 10.835H37.0898V12.9997H39.2695V10.835Z" fill="#A5D060"/>
<path d="M41.4492 10.835H39.2695V12.9997H41.4492V10.835Z" fill="#A5D060"/>
<path d="M43.6347 10.835H41.4551V12.9997H43.6347V10.835Z" fill="#25868B"/>
<path d="M45.8144 10.835H43.6348V12.9997H45.8144V10.835Z" fill="#25868B"/>
<path d="M47.9941 10.835H45.8145V12.9997H47.9941V10.835Z" fill="#2B2B2B"/>
<path d="M2.17965 13H0V15.1647H2.17965V13Z" fill="#2B2B2B"/>
<path d="M4.35934 13H2.17969V15.1647H4.35934V13Z" fill="#25868B"/>
<path d="M6.54489 13H4.36523V15.1647H6.54489V13Z" fill="#25868B"/>
<path d="M8.72457 13H6.54492V15.1647H8.72457V13Z" fill="#A5D060"/>
<path d="M10.9043 13H8.72461V15.1647H10.9043V13Z" fill="#A5D060"/>
<path d="M13.0898 13H10.9102V15.1647H13.0898V13Z" fill="#A5D060"/>
<path d="M15.2695 13H13.0898V15.1647H15.2695V13Z" fill="#A5D060"/>
<path d="M17.4492 13H15.2695V15.1647H17.4492V13Z" fill="#A5D060"/>
<path d="M19.6347 13H17.4551V15.1647H19.6347V13Z" fill="#A5D060"/>
<path d="M21.8144 13H19.6348V15.1647H21.8144V13Z" fill="#A5D060"/>
<path d="M24 13H21.8203V15.1647H24V13Z" fill="#A5D060"/>
<path d="M26.1797 13H24V15.1647H26.1797V13Z" fill="#A5D060"/>
<path d="M28.3593 13H26.1797V15.1647H28.3593V13Z" fill="#A5D060"/>
<path d="M30.5449 13H28.3652V15.1647H30.5449V13Z" fill="#A5D060"/>
<path d="M32.7246 13H30.5449V15.1647H32.7246V13Z" fill="#A5D060"/>
<path d="M34.9043 13H32.7246V15.1647H34.9043V13Z" fill="#A5D060"/>
<path d="M37.0898 13H34.9102V15.1647H37.0898V13Z" fill="#A5D060"/>
<path d="M39.2695 13H37.0898V15.1647H39.2695V13Z" fill="#A5D060"/>
<path d="M41.4492 13H39.2695V15.1647H41.4492V13Z" fill="#A5D060"/>
<path d="M43.6347 13H41.4551V15.1647H43.6347V13Z" fill="#25868B"/>
<path d="M45.8144 13H43.6348V15.1647H45.8144V13Z" fill="#25868B"/>
<path d="M47.9941 13H45.8145V15.1647H47.9941V13Z" fill="#2B2B2B"/>
<path d="M2.17965 15.1646H0V17.3292H2.17965V15.1646Z" fill="#2B2B2B"/>
<path d="M4.35934 15.1646H2.17969V17.3292H4.35934V15.1646Z" fill="#25868B"/>
<path d="M6.54489 15.1646H4.36523V17.3292H6.54489V15.1646Z" fill="#25868B"/>
<path d="M8.72457 15.1646H6.54492V17.3292H8.72457V15.1646Z" fill="#A5D060"/>
<path d="M10.9043 15.1646H8.72461V17.3292H10.9043V15.1646Z" fill="#A5D060"/>
<path d="M13.0898 15.1646H10.9102V17.3292H13.0898V15.1646Z" fill="#A5D060"/>
<path d="M15.2695 15.1646H13.0898V17.3292H15.2695V15.1646Z" fill="#A5D060"/>
<path d="M17.4492 15.1646H15.2695V17.3292H17.4492V15.1646Z" fill="#A5D060"/>
<path d="M19.6347 15.1646H17.4551V17.3292H19.6347V15.1646Z" fill="#A5D060"/>
<path d="M21.8144 15.1646H19.6348V17.3292H21.8144V15.1646Z" fill="#A5D060"/>
<path d="M24 15.1646H21.8203V17.3292H24V15.1646Z" fill="#A5D060"/>
<path d="M26.1797 15.1646H24V17.3292H26.1797V15.1646Z" fill="#A5D060"/>
<path d="M28.3593 15.1646H26.1797V17.3292H28.3593V15.1646Z" fill="#A5D060"/>
<path d="M30.5449 15.1646H28.3652V17.3292H30.5449V15.1646Z" fill="#A5D060"/>
<path d="M32.7246 15.1646H30.5449V17.3292H32.7246V15.1646Z" fill="#A5D060"/>
<path d="M34.9043 15.1646H32.7246V17.3292H34.9043V15.1646Z" fill="#A5D060"/>
<path d="M37.0898 15.1646H34.9102V17.3292H37.0898V15.1646Z" fill="#A5D060"/>
<path d="M39.2695 15.1646H37.0898V17.3292H39.2695V15.1646Z" fill="#A5D060"/>
<path d="M41.4492 15.1646H39.2695V17.3292H41.4492V15.1646Z" fill="#A5D060"/>
<path d="M43.6347 15.1646H41.4551V17.3292H43.6347V15.1646Z" fill="#25868B"/>
<path d="M45.8144 15.1646H43.6348V17.3292H45.8144V15.1646Z" fill="#25868B"/>
<path d="M47.9941 15.1646H45.8145V17.3292H47.9941V15.1646Z" fill="#2B2B2B"/>
<path d="M2.17965 17.335H0V19.4997H2.17965V17.335Z" fill="#2B2B2B"/>
<path d="M4.35934 17.335H2.17969V19.4997H4.35934V17.335Z" fill="#25868B"/>
<path d="M6.54489 17.335H4.36523V19.4997H6.54489V17.335Z" fill="#25868B"/>
<path d="M8.72457 17.335H6.54492V19.4997H8.72457V17.335Z" fill="#A5D060"/>
<path d="M10.9043 17.335H8.72461V19.4997H10.9043V17.335Z" fill="#A5D060"/>
<path d="M13.0898 17.335H10.9102V19.4997H13.0898V17.335Z" fill="#A5D060"/>
<path d="M15.2695 17.335H13.0898V19.4997H15.2695V17.335Z" fill="#A5D060"/>
<path d="M17.4492 17.335H15.2695V19.4997H17.4492V17.335Z" fill="#A5D060"/>
<path d="M19.6347 17.335H17.4551V19.4997H19.6347V17.335Z" fill="#A5D060"/>
<path d="M21.8144 17.335H19.6348V19.4997H21.8144V17.335Z" fill="#A5D060"/>
<path d="M24 17.335H21.8203V19.4997H24V17.335Z" fill="#A5D060"/>
<path d="M26.1797 17.335H24V19.4997H26.1797V17.335Z" fill="#A5D060"/>
<path d="M28.3593 17.335H26.1797V19.4997H28.3593V17.335Z" fill="#A5D060"/>
<path d="M30.5449 17.335H28.3652V19.4997H30.5449V17.335Z" fill="#A5D060"/>
<path d="M32.7246 17.335H30.5449V19.4997H32.7246V17.335Z" fill="#A5D060"/>
<path d="M34.9043 17.335H32.7246V19.4997H34.9043V17.335Z" fill="#A5D060"/>
<path d="M37.0898 17.335H34.9102V19.4997H37.0898V17.335Z" fill="#A5D060"/>
<path d="M39.2695 17.335H37.0898V19.4997H39.2695V17.335Z" fill="#A5D060"/>
<path d="M41.4492 17.335H39.2695V19.4997H41.4492V17.335Z" fill="#A5D060"/>
<path d="M43.6347 17.335H41.4551V19.4997H43.6347V17.335Z" fill="#25868B"/>
<path d="M45.8144 17.335H43.6348V19.4997H45.8144V17.335Z" fill="#25868B"/>
<path d="M47.9941 17.335H45.8145V19.4997H47.9941V17.335Z" fill="#2B2B2B"/>
<path d="M2.17965 19.5H0V21.6647H2.17965V19.5Z" fill="#2B2B2B"/>
<path d="M4.35934 19.5H2.17969V21.6647H4.35934V19.5Z" fill="#25868B"/>
<path d="M6.54489 19.5H4.36523V21.6647H6.54489V19.5Z" fill="#25868B"/>
<path d="M8.72457 19.5H6.54492V21.6647H8.72457V19.5Z" fill="#A5D060"/>
<path d="M10.9043 19.5H8.72461V21.6647H10.9043V19.5Z" fill="#A5D060"/>
<path d="M13.0898 19.5H10.9102V21.6647H13.0898V19.5Z" fill="#A5D060"/>
<path d="M15.2695 19.5H13.0898V21.6647H15.2695V19.5Z" fill="#A5D060"/>
<path d="M17.4492 19.5H15.2695V21.6647H17.4492V19.5Z" fill="#A5D060"/>
<path d="M19.6347 19.5H17.4551V21.6647H19.6347V19.5Z" fill="#A5D060"/>
<path d="M21.8144 19.5H19.6348V21.6647H21.8144V19.5Z" fill="#A5D060"/>
<path d="M24 19.5H21.8203V21.6647H24V19.5Z" fill="#A5D060"/>
<path d="M26.1797 19.5H24V21.6647H26.1797V19.5Z" fill="#A5D060"/>
<path d="M28.3593 19.5H26.1797V21.6647H28.3593V19.5Z" fill="#A5D060"/>
<path d="M30.5449 19.5H28.3652V21.6647H30.5449V19.5Z" fill="#A5D060"/>
<path d="M32.7246 19.5H30.5449V21.6647H32.7246V19.5Z" fill="#A5D060"/>
<path d="M34.9043 19.5H32.7246V21.6647H34.9043V19.5Z" fill="#A5D060"/>
<path d="M37.0898 19.5H34.9102V21.6647H37.0898V19.5Z" fill="#A5D060"/>
<path d="M39.2695 19.5H37.0898V21.6647H39.2695V19.5Z" fill="#A5D060"/>
<path d="M41.4492 19.5H39.2695V21.6647H41.4492V19.5Z" fill="#A5D060"/>
<path d="M43.6347 19.5H41.4551V21.6647H43.6347V19.5Z" fill="#25868B"/>
<path d="M45.8144 19.5H43.6348V21.6647H45.8144V19.5Z" fill="#25868B"/>
<path d="M47.9941 19.5H45.8145V21.6647H47.9941V19.5Z" fill="#2B2B2B"/>
<path d="M2.17965 21.6704H0V23.8351H2.17965V21.6704Z" fill="#2B2B2B"/>
<path d="M4.35934 21.6704H2.17969V23.8351H4.35934V21.6704Z" fill="#25868B"/>
<path d="M6.54489 21.6704H4.36523V23.8351H6.54489V21.6704Z" fill="#25868B"/>
<path d="M8.72457 21.6704H6.54492V23.8351H8.72457V21.6704Z" fill="#A5D060"/>
<path d="M10.9043 21.6704H8.72461V23.8351H10.9043V21.6704Z" fill="#A5D060"/>
<path d="M13.0898 21.6704H10.9102V23.8351H13.0898V21.6704Z" fill="#A5D060"/>
<path d="M15.2695 21.6704H13.0898V23.8351H15.2695V21.6704Z" fill="#A5D060"/>
<path d="M17.4492 21.6704H15.2695V23.8351H17.4492V21.6704Z" fill="#A5D060"/>
<path d="M19.6347 21.6704H17.4551V23.8351H19.6347V21.6704Z" fill="#A5D060"/>
<path d="M21.8144 21.6704H19.6348V23.8351H21.8144V21.6704Z" fill="#A5D060"/>
<path d="M24 21.6704H21.8203V23.8351H24V21.6704Z" fill="#A5D060"/>
<path d="M26.1797 21.6704H24V23.8351H26.1797V21.6704Z" fill="#A5D060"/>
<path d="M28.3593 21.6704H26.1797V23.8351H28.3593V21.6704Z" fill="#A5D060"/>
<path d="M30.5449 21.6704H28.3652V23.8351H30.5449V21.6704Z" fill="#A5D060"/>
<path d="M32.7246 21.6704H30.5449V23.8351H32.7246V21.6704Z" fill="#A5D060"/>
<path d="M34.9043 21.6704H32.7246V23.8351H34.9043V21.6704Z" fill="#A5D060"/>
<path d="M37.0898 21.6704H34.9102V23.8351H37.0898V21.6704Z" fill="#A5D060"/>
<path d="M39.2695 21.6704H37.0898V23.8351H39.2695V21.6704Z" fill="#A5D060"/>
<path d="M41.4492 21.6704H39.2695V23.8351H41.4492V21.6704Z" fill="#A5D060"/>
<path d="M43.6347 21.6704H41.4551V23.8351H43.6347V21.6704Z" fill="#25868B"/>
<path d="M45.8144 21.6704H43.6348V23.8351H45.8144V21.6704Z" fill="#25868B"/>
<path d="M47.9941 21.6704H45.8145V23.8351H47.9941V21.6704Z" fill="#2B2B2B"/>
<path d="M2.17965 23.835H0V25.9997H2.17965V23.835Z" fill="#2B2B2B"/>
<path d="M4.35934 23.835H2.17969V25.9997H4.35934V23.835Z" fill="#25868B"/>
<path d="M6.54489 23.835H4.36523V25.9997H6.54489V23.835Z" fill="#25868B"/>
<path d="M8.72457 23.835H6.54492V25.9997H8.72457V23.835Z" fill="#A5D060"/>
<path d="M10.9043 23.835H8.72461V25.9997H10.9043V23.835Z" fill="#A5D060"/>
<path d="M13.0898 23.835H10.9102V25.9997H13.0898V23.835Z" fill="#A5D060"/>
<path d="M15.2695 23.835H13.0898V25.9997H15.2695V23.835Z" fill="#A5D060"/>
<path d="M17.4492 23.835H15.2695V25.9997H17.4492V23.835Z" fill="#A5D060"/>
<path d="M19.6347 23.835H17.4551V25.9997H19.6347V23.835Z" fill="#A5D060"/>
<path d="M21.8144 23.835H19.6348V25.9997H21.8144V23.835Z" fill="#A5D060"/>
<path d="M24 23.835H21.8203V25.9997H24V23.835Z" fill="#A5D060"/>
<path d="M26.1797 23.835H24V25.9997H26.1797V23.835Z" fill="#A5D060"/>
<path d="M28.3593 23.835H26.1797V25.9997H28.3593V23.835Z" fill="#A5D060"/>
<path d="M30.5449 23.835H28.3652V25.9997H30.5449V23.835Z" fill="#A5D060"/>
<path d="M32.7246 23.835H30.5449V25.9997H32.7246V23.835Z" fill="#A5D060"/>
<path d="M34.9043 23.835H32.7246V25.9997H34.9043V23.835Z" fill="#A5D060"/>
<path d="M37.0898 23.835H34.9102V25.9997H37.0898V23.835Z" fill="#A5D060"/>
<path d="M39.2695 23.835H37.0898V25.9997H39.2695V23.835Z" fill="#A5D060"/>
<path d="M41.4492 23.835H39.2695V25.9997H41.4492V23.835Z" fill="#A5D060"/>
<path d="M43.6347 23.835H41.4551V25.9997H43.6347V23.835Z" fill="#25868B"/>
<path d="M45.8144 23.835H43.6348V25.9997H45.8144V23.835Z" fill="#25868B"/>
<path d="M47.9941 23.835H45.8145V25.9997H47.9941V23.835Z" fill="#2B2B2B"/>
<path d="M2.17965 26H0V28.1647H2.17965V26Z" fill="#2B2B2B"/>
<path d="M4.35934 26H2.17969V28.1647H4.35934V26Z" fill="#25868B"/>
<path d="M6.54489 26H4.36523V28.1647H6.54489V26Z" fill="#25868B"/>
<path d="M8.72457 26H6.54492V28.1647H8.72457V26Z" fill="#A5D060"/>
<path d="M10.9043 26H8.72461V28.1647H10.9043V26Z" fill="#A5D060"/>
<path d="M13.0898 26H10.9102V28.1647H13.0898V26Z" fill="#A5D060"/>
<path d="M15.2695 26H13.0898V28.1647H15.2695V26Z" fill="#A5D060"/>
<path d="M17.4492 26H15.2695V28.1647H17.4492V26Z" fill="#A5D060"/>
<path d="M19.6347 26H17.4551V28.1647H19.6347V26Z" fill="#A5D060"/>
<path d="M21.8144 26H19.6348V28.1647H21.8144V26Z" fill="#A5D060"/>
<path d="M24 26H21.8203V28.1647H24V26Z" fill="#A5D060"/>
<path d="M26.1797 26H24V28.1647H26.1797V26Z" fill="#A5D060"/>
<path d="M28.3593 26H26.1797V28.1647H28.3593V26Z" fill="#A5D060"/>
<path d="M30.5449 26H28.3652V28.1647H30.5449V26Z" fill="#A5D060"/>
<path d="M32.7246 26H30.5449V28.1647H32.7246V26Z" fill="#A5D060"/>
<path d="M34.9043 26H32.7246V28.1647H34.9043V26Z" fill="#A5D060"/>
<path d="M37.0898 26H34.9102V28.1647H37.0898V26Z" fill="#A5D060"/>
<path d="M39.2695 26H37.0898V28.1647H39.2695V26Z" fill="#A5D060"/>
<path d="M41.4492 26H39.2695V28.1647H41.4492V26Z" fill="#A5D060"/>
<path d="M43.6347 26H41.4551V28.1647H43.6347V26Z" fill="#25868B"/>
<path d="M45.8144 26H43.6348V28.1647H45.8144V26Z" fill="#25868B"/>
<path d="M47.9941 26H45.8145V28.1647H47.9941V26Z" fill="#2B2B2B"/>
<path d="M2.17965 28.1704H0V30.3351H2.17965V28.1704Z" fill="#2B2B2B"/>
<path d="M4.35934 28.1704H2.17969V30.3351H4.35934V28.1704Z" fill="#25868B"/>
<path d="M6.54489 28.1704H4.36523V30.3351H6.54489V28.1704Z" fill="#25868B"/>
<path d="M8.72457 28.1704H6.54492V30.3351H8.72457V28.1704Z" fill="#F5E982"/>
<path d="M10.9043 28.1704H8.72461V30.3351H10.9043V28.1704Z" fill="#A5D060"/>
<path d="M13.0898 28.1704H10.9102V30.3351H13.0898V28.1704Z" fill="#A5D060"/>
<path d="M15.2695 28.1704H13.0898V30.3351H15.2695V28.1704Z" fill="#A5D060"/>
<path d="M17.4492 28.1704H15.2695V30.3351H17.4492V28.1704Z" fill="#A5D060"/>
<path d="M19.6347 28.1704H17.4551V30.3351H19.6347V28.1704Z" fill="#A5D060"/>
<path d="M21.8144 28.1704H19.6348V30.3351H21.8144V28.1704Z" fill="#A5D060"/>
<path d="M24 28.1704H21.8203V30.3351H24V28.1704Z" fill="#A5D060"/>
<path d="M26.1797 28.1704H24V30.3351H26.1797V28.1704Z" fill="#A5D060"/>
<path d="M28.3593 28.1704H26.1797V30.3351H28.3593V28.1704Z" fill="#A5D060"/>
<path d="M30.5449 28.1704H28.3652V30.3351H30.5449V28.1704Z" fill="#A5D060"/>
<path d="M32.7246 28.1704H30.5449V30.3351H32.7246V28.1704Z" fill="#A5D060"/>
<path d="M34.9043 28.1704H32.7246V30.3351H34.9043V28.1704Z" fill="#A5D060"/>
<path d="M37.0898 28.1704H34.9102V30.3351H37.0898V28.1704Z" fill="#A5D060"/>
<path d="M39.2695 28.1704H37.0898V30.3351H39.2695V28.1704Z" fill="#A5D060"/>
<path d="M41.4492 28.1704H39.2695V30.3351H41.4492V28.1704Z" fill="#F5E982"/>
<path d="M43.6347 28.1704H41.4551V30.3351H43.6347V28.1704Z" fill="#25868B"/>
<path d="M45.8144 28.1704H43.6348V30.3351H45.8144V28.1704Z" fill="#25868B"/>
<path d="M47.9941 28.1704H45.8145V30.3351H47.9941V28.1704Z" fill="#2B2B2B"/>
<path d="M2.17965 30.335H0V32.4997H2.17965V30.335Z" fill="#2B2B2B"/>
<path d="M4.35934 30.335H2.17969V32.4997H4.35934V30.335Z" fill="#25868B"/>
<path d="M6.54489 30.335H4.36523V32.4997H6.54489V30.335Z" fill="#25868B"/>
<path d="M8.72457 30.335H6.54492V32.4997H8.72457V30.335Z" fill="#4CAF6E"/>
<path d="M10.9043 30.335H8.72461V32.4997H10.9043V30.335Z" fill="#F5E982"/>
<path d="M13.0898 30.335H10.9102V32.4997H13.0898V30.335Z" fill="#F5E982"/>
<path d="M15.2695 30.335H13.0898V32.4997H15.2695V30.335Z" fill="#F5E982"/>
<path d="M17.4492 30.335H15.2695V32.4997H17.4492V30.335Z" fill="#F5E982"/>
<path d="M19.6347 30.335H17.4551V32.4997H19.6347V30.335Z" fill="#F5E982"/>
<path d="M21.8144 30.335H19.6348V32.4997H21.8144V30.335Z" fill="#F5E982"/>
<path d="M24 30.335H21.8203V32.4997H24V30.335Z" fill="#F5E982"/>
<path d="M26.1797 30.335H24V32.4997H26.1797V30.335Z" fill="#F5E982"/>
<path d="M28.3593 30.335H26.1797V32.4997H28.3593V30.335Z" fill="#F5E982"/>
<path d="M30.5449 30.335H28.3652V32.4997H30.5449V30.335Z" fill="#F5E982"/>
<path d="M32.7246 30.335H30.5449V32.4997H32.7246V30.335Z" fill="#F5E982"/>
<path d="M34.9043 30.335H32.7246V32.4997H34.9043V30.335Z" fill="#F5E982"/>
<path d="M37.0898 30.335H34.9102V32.4997H37.0898V30.335Z" fill="#F5E982"/>
<path d="M39.2695 30.335H37.0898V32.4997H39.2695V30.335Z" fill="#F5E982"/>
<path d="M41.4492 30.335H39.2695V32.4997H41.4492V30.335Z" fill="#4CAF6E"/>
<path d="M43.6347 30.335H41.4551V32.4997H43.6347V30.335Z" fill="#25868B"/>
<path d="M45.8144 30.335H43.6348V32.4997H45.8144V30.335Z" fill="#25868B"/>
<path d="M47.9941 30.335H45.8145V32.4997H47.9941V30.335Z" fill="#2B2B2B"/>
<path d="M2.17965 32.5H0V34.6647H2.17965V32.5Z" fill="#2B2B2B"/>
<path d="M4.35934 32.5H2.17969V34.6647H4.35934V32.5Z" fill="#25868B"/>
<path d="M6.54489 32.5H4.36523V34.6647H6.54489V32.5Z" fill="#25868B"/>
<path d="M8.72457 32.5H6.54492V34.6647H8.72457V32.5Z" fill="#4CAF6E"/>
<path d="M10.9043 32.5H8.72461V34.6647H10.9043V32.5Z" fill="#4CAF6E"/>
<path d="M13.0898 32.5H10.9102V34.6647H13.0898V32.5Z" fill="#4CAF6E"/>
<path d="M15.2695 32.5H13.0898V34.6647H15.2695V32.5Z" fill="#4CAF6E"/>
<path d="M17.4492 32.5H15.2695V34.6647H17.4492V32.5Z" fill="#4CAF6E"/>
<path d="M19.6347 32.5H17.4551V34.6647H19.6347V32.5Z" fill="#4CAF6E"/>
<path d="M21.8144 32.5H19.6348V34.6647H21.8144V32.5Z" fill="#4CAF6E"/>
<path d="M24 32.5H21.8203V34.6647H24V32.5Z" fill="#4CAF6E"/>
<path d="M26.1797 32.5H24V34.6647H26.1797V32.5Z" fill="#4CAF6E"/>
<path d="M28.3593 32.5H26.1797V34.6647H28.3593V32.5Z" fill="#4CAF6E"/>
<path d="M30.5449 32.5H28.3652V34.6647H30.5449V32.5Z" fill="#4CAF6E"/>
<path d="M32.7246 32.5H30.5449V34.6647H32.7246V32.5Z" fill="#4CAF6E"/>
<path d="M34.9043 32.5H32.7246V34.6647H34.9043V32.5Z" fill="#4CAF6E"/>
<path d="M37.0898 32.5H34.9102V34.6647H37.0898V32.5Z" fill="#4CAF6E"/>
<path d="M39.2695 32.5H37.0898V34.6647H39.2695V32.5Z" fill="#4CAF6E"/>
<path d="M41.4492 32.5H39.2695V34.6647H41.4492V32.5Z" fill="#4CAF6E"/>
<path d="M43.6347 32.5H41.4551V34.6647H43.6347V32.5Z" fill="#25868B"/>
<path d="M45.8144 32.5H43.6348V34.6647H45.8144V32.5Z" fill="#25868B"/>
<path d="M47.9941 32.5H45.8145V34.6647H47.9941V32.5Z" fill="#2B2B2B"/>
<path d="M2.17965 34.6704H0V36.8351H2.17965V34.6704Z" fill="#2B2B2B"/>
<path d="M4.35934 34.6704H2.17969V36.8351H4.35934V34.6704Z" fill="#25868B"/>
<path d="M6.54489 34.6704H4.36523V36.8351H6.54489V34.6704Z" fill="#25868B"/>
<path d="M8.72457 34.6704H6.54492V36.8351H8.72457V34.6704Z" fill="#4CAF6E"/>
<path d="M10.9043 34.6704H8.72461V36.8351H10.9043V34.6704Z" fill="#4CAF6E"/>
<path d="M13.0898 34.6704H10.9102V36.8351H13.0898V34.6704Z" fill="#4CAF6E"/>
<path d="M15.2695 34.6704H13.0898V36.8351H15.2695V34.6704Z" fill="#4CAF6E"/>
<path d="M17.4492 34.6704H15.2695V36.8351H17.4492V34.6704Z" fill="#4CAF6E"/>
<path d="M19.6347 34.6704H17.4551V36.8351H19.6347V34.6704Z" fill="#4CAF6E"/>
<path d="M21.8144 34.6704H19.6348V36.8351H21.8144V34.6704Z" fill="#4CAF6E"/>
<path d="M24 34.6704H21.8203V36.8351H24V34.6704Z" fill="#4CAF6E"/>
<path d="M26.1797 34.6704H24V36.8351H26.1797V34.6704Z" fill="#4CAF6E"/>
<path d="M28.3593 34.6704H26.1797V36.8351H28.3593V34.6704Z" fill="#4CAF6E"/>
<path d="M30.5449 34.6704H28.3652V36.8351H30.5449V34.6704Z" fill="#4CAF6E"/>
<path d="M32.7246 34.6704H30.5449V36.8351H32.7246V34.6704Z" fill="#4CAF6E"/>
<path d="M34.9043 34.6704H32.7246V36.8351H34.9043V34.6704Z" fill="#4CAF6E"/>
<path d="M37.0898 34.6704H34.9102V36.8351H37.0898V34.6704Z" fill="#4CAF6E"/>
<path d="M39.2695 34.6704H37.0898V36.8351H39.2695V34.6704Z" fill="#4CAF6E"/>
<path d="M41.4492 34.6704H39.2695V36.8351H41.4492V34.6704Z" fill="#4CAF6E"/>
<path d="M43.6347 34.6704H41.4551V36.8351H43.6347V34.6704Z" fill="#25868B"/>
<path d="M45.8144 34.6704H43.6348V36.8351H45.8144V34.6704Z" fill="#25868B"/>
<path d="M47.9941 34.6704H45.8145V36.8351H47.9941V34.6704Z" fill="#2B2B2B"/>
<path d="M2.17965 36.835H0V38.9997H2.17965V36.835Z" fill="#2B2B2B"/>
<path d="M4.35934 36.835H2.17969V38.9997H4.35934V36.835Z" fill="#25868B"/>
<path d="M6.54489 36.835H4.36523V38.9997H6.54489V36.835Z" fill="#25868B"/>
<path d="M8.72457 36.835H6.54492V38.9997H8.72457V36.835Z" fill="#4F5180"/>
<path d="M10.9043 36.835H8.72461V38.9997H10.9043V36.835Z" fill="#4CAF6E"/>
<path d="M13.0898 36.835H10.9102V38.9997H13.0898V36.835Z" fill="#4CAF6E"/>
<path d="M15.2695 36.835H13.0898V38.9997H15.2695V36.835Z" fill="#4CAF6E"/>
<path d="M17.4492 36.835H15.2695V38.9997H17.4492V36.835Z" fill="#4CAF6E"/>
<path d="M19.6347 36.835H17.4551V38.9997H19.6347V36.835Z" fill="#4CAF6E"/>
<path d="M21.8144 36.835H19.6348V38.9997H21.8144V36.835Z" fill="#4CAF6E"/>
<path d="M24 36.835H21.8203V38.9997H24V36.835Z" fill="#4CAF6E"/>
<path d="M26.1797 36.835H24V38.9997H26.1797V36.835Z" fill="#4CAF6E"/>
<path d="M28.3593 36.835H26.1797V38.9997H28.3593V36.835Z" fill="#4CAF6E"/>
<path d="M30.5449 36.835H28.3652V38.9997H30.5449V36.835Z" fill="#4CAF6E"/>
<path d="M32.7246 36.835H30.5449V38.9997H32.7246V36.835Z" fill="#4CAF6E"/>
<path d="M34.9043 36.835H32.7246V38.9997H34.9043V36.835Z" fill="#4CAF6E"/>
<path d="M37.0898 36.835H34.9102V38.9997H37.0898V36.835Z" fill="#4CAF6E"/>
<path d="M39.2695 36.835H37.0898V38.9997H39.2695V36.835Z" fill="#4CAF6E"/>
<path d="M41.4492 36.835H39.2695V38.9997H41.4492V36.835Z" fill="#4F5180"/>
<path d="M43.6347 36.835H41.4551V38.9997H43.6347V36.835Z" fill="#25868B"/>
<path d="M45.8144 36.835H43.6348V38.9997H45.8144V36.835Z" fill="#25868B"/>
<path d="M47.9941 36.835H45.8145V38.9997H47.9941V36.835Z" fill="#2B2B2B"/>
<path d="M2.17965 39H0V41.1647H2.17965V39Z" fill="#2B2B2B"/>
<path d="M4.35934 39H2.17969V41.1647H4.35934V39Z" fill="#25868B"/>
<path d="M6.54489 39H4.36523V41.1647H6.54489V39Z" fill="#25868B"/>
<path d="M8.72457 39H6.54492V41.1647H8.72457V39Z" fill="#25868B"/>
<path d="M10.9043 39H8.72461V41.1647H10.9043V39Z" fill="#4F5180"/>
<path d="M13.0898 39H10.9102V41.1647H13.0898V39Z" fill="#4F5180"/>
<path d="M15.2695 39H13.0898V41.1647H15.2695V39Z" fill="#4F5180"/>
<path d="M17.4492 39H15.2695V41.1647H17.4492V39Z" fill="#4F5180"/>
<path d="M19.6347 39H17.4551V41.1647H19.6347V39Z" fill="#4F5180"/>
<path d="M21.8144 39H19.6348V41.1647H21.8144V39Z" fill="#4F5180"/>
<path d="M24 39H21.8203V41.1647H24V39Z" fill="#4F5180"/>
<path d="M26.1797 39H24V41.1647H26.1797V39Z" fill="#4F5180"/>
<path d="M28.3593 39H26.1797V41.1647H28.3593V39Z" fill="#4F5180"/>
<path d="M30.5449 39H28.3652V41.1647H30.5449V39Z" fill="#4F5180"/>
<path d="M32.7246 39H30.5449V41.1647H32.7246V39Z" fill="#4F5180"/>
<path d="M34.9043 39H32.7246V41.1647H34.9043V39Z" fill="#4F5180"/>
<path d="M37.0898 39H34.9102V41.1647H37.0898V39Z" fill="#4F5180"/>
<path d="M39.2695 39H37.0898V41.1647H39.2695V39Z" fill="#4F5180"/>
<path d="M41.4492 39H39.2695V41.1647H41.4492V39Z" fill="#25868B"/>
<path d="M43.6347 39H41.4551V41.1647H43.6347V39Z" fill="#25868B"/>
<path d="M45.8144 39H43.6348V41.1647H45.8144V39Z" fill="#25868B"/>
<path d="M47.9941 39H45.8145V41.1647H47.9941V39Z" fill="#2B2B2B"/>
<path d="M2.17965 41.1704H0V43.3351H2.17965V41.1704Z" fill="#2B2B2B"/>
<path d="M4.35934 41.1704H2.17969V43.3351H4.35934V41.1704Z" fill="#4CAF6E"/>
<path d="M6.54489 41.1704H4.36523V43.3351H6.54489V41.1704Z" fill="#25868B"/>
<path d="M8.72457 41.1704H6.54492V43.3351H8.72457V41.1704Z" fill="#25868B"/>
<path d="M10.9043 41.1704H8.72461V43.3351H10.9043V41.1704Z" fill="#25868B"/>
<path d="M13.0898 41.1704H10.9102V43.3351H13.0898V41.1704Z" fill="#25868B"/>
<path d="M15.2695 41.1704H13.0898V43.3351H15.2695V41.1704Z" fill="#25868B"/>
<path d="M17.4492 41.1704H15.2695V43.3351H17.4492V41.1704Z" fill="#25868B"/>
<path d="M19.6347 41.1704H17.4551V43.3351H19.6347V41.1704Z" fill="#25868B"/>
<path d="M21.8144 41.1704H19.6348V43.3351H21.8144V41.1704Z" fill="#25868B"/>
<path d="M24 41.1704H21.8203V43.3351H24V41.1704Z" fill="#25868B"/>
<path d="M26.1797 41.1704H24V43.3351H26.1797V41.1704Z" fill="#25868B"/>
<path d="M28.3593 41.1704H26.1797V43.3351H28.3593V41.1704Z" fill="#25868B"/>
<path d="M30.5449 41.1704H28.3652V43.3351H30.5449V41.1704Z" fill="#25868B"/>
<path d="M32.7246 41.1704H30.5449V43.3351H32.7246V41.1704Z" fill="#25868B"/>
<path d="M34.9043 41.1704H32.7246V43.3351H34.9043V41.1704Z" fill="#25868B"/>
<path d="M37.0898 41.1704H34.9102V43.3351H37.0898V41.1704Z" fill="#25868B"/>
<path d="M39.2695 41.1704H37.0898V43.3351H39.2695V41.1704Z" fill="#25868B"/>
<path d="M41.4492 41.1704H39.2695V43.3351H41.4492V41.1704Z" fill="#25868B"/>
<path d="M43.6347 41.1704H41.4551V43.3351H43.6347V41.1704Z" fill="#25868B"/>
<path d="M45.8144 41.1704H43.6348V43.3351H45.8144V41.1704Z" fill="#4CAF6E"/>
<path d="M47.9941 41.1704H45.8145V43.3351H47.9941V41.1704Z" fill="#2B2B2B"/>
<path d="M2.17965 43.335H0V45.4997H2.17965V43.335Z" fill="#2B2B2B"/>
<path d="M4.35934 43.335H2.17969V45.4997H4.35934V43.335Z" fill="#4F5180"/>
<path d="M6.54489 43.335H4.36523V45.4997H6.54489V43.335Z" fill="#4CAF6E"/>
<path d="M8.72457 43.335H6.54492V45.4997H8.72457V43.335Z" fill="#4CAF6E"/>
<path d="M10.9043 43.335H8.72461V45.4997H10.9043V43.335Z" fill="#4CAF6E"/>
<path d="M13.0898 43.335H10.9102V45.4997H13.0898V43.335Z" fill="#4CAF6E"/>
<path d="M15.2695 43.335H13.0898V45.4997H15.2695V43.335Z" fill="#4CAF6E"/>
<path d="M17.4492 43.335H15.2695V45.4997H17.4492V43.335Z" fill="#4CAF6E"/>
<path d="M19.6347 43.335H17.4551V45.4997H19.6347V43.335Z" fill="#4CAF6E"/>
<path d="M21.8144 43.335H19.6348V45.4997H21.8144V43.335Z" fill="#4CAF6E"/>
<path d="M24 43.335H21.8203V45.4997H24V43.335Z" fill="#4CAF6E"/>
<path d="M26.1797 43.335H24V45.4997H26.1797V43.335Z" fill="#4CAF6E"/>
<path d="M28.3593 43.335H26.1797V45.4997H28.3593V43.335Z" fill="#4CAF6E"/>
<path d="M30.5449 43.335H28.3652V45.4997H30.5449V43.335Z" fill="#4CAF6E"/>
<path d="M32.7246 43.335H30.5449V45.4997H32.7246V43.335Z" fill="#4CAF6E"/>
<path d="M34.9043 43.335H32.7246V45.4997H34.9043V43.335Z" fill="#4CAF6E"/>
<path d="M37.0898 43.335H34.9102V45.4997H37.0898V43.335Z" fill="#4CAF6E"/>
<path d="M39.2695 43.335H37.0898V45.4997H39.2695V43.335Z" fill="#4CAF6E"/>
<path d="M41.4492 43.335H39.2695V45.4997H41.4492V43.335Z" fill="#4CAF6E"/>
<path d="M43.6347 43.335H41.4551V45.4997H43.6347V43.335Z" fill="#4CAF6E"/>
<path d="M45.8144 43.335H43.6348V45.4997H45.8144V43.335Z" fill="#4F5180"/>
<path d="M47.9941 43.335H45.8145V45.4997H47.9941V43.335Z" fill="#2B2B2B"/>
<path d="M2.17965 45.5H0V47.6647H2.17965V45.5Z" fill="#2B2B2B"/>
<path d="M4.35934 45.5H2.17969V47.6647H4.35934V45.5Z" fill="#4F5180"/>
<path d="M6.54489 45.5H4.36523V47.6647H6.54489V45.5Z" fill="#4F5180"/>
<path d="M8.72457 45.5H6.54492V47.6647H8.72457V45.5Z" fill="#4F5180"/>
<path d="M10.9043 45.5H8.72461V47.6647H10.9043V45.5Z" fill="#4F5180"/>
<path d="M13.0898 45.5H10.9102V47.6647H13.0898V45.5Z" fill="#4F5180"/>
<path d="M15.2695 45.5H13.0898V47.6647H15.2695V45.5Z" fill="#4F5180"/>
<path d="M17.4492 45.5H15.2695V47.6647H17.4492V45.5Z" fill="#4F5180"/>
<path d="M19.6347 45.5H17.4551V47.6647H19.6347V45.5Z" fill="#4F5180"/>
<path d="M21.8144 45.5H19.6348V47.6647H21.8144V45.5Z" fill="#4F5180"/>
<path d="M24 45.5H21.8203V47.6647H24V45.5Z" fill="#4F5180"/>
<path d="M26.1797 45.5H24V47.6647H26.1797V45.5Z" fill="#4F5180"/>
<path d="M28.3593 45.5H26.1797V47.6647H28.3593V45.5Z" fill="#4F5180"/>
<path d="M30.5449 45.5H28.3652V47.6647H30.5449V45.5Z" fill="#4F5180"/>
<path d="M32.7246 45.5H30.5449V47.6647H32.7246V45.5Z" fill="#4F5180"/>
<path d="M34.9043 45.5H32.7246V47.6647H34.9043V45.5Z" fill="#4F5180"/>
<path d="M37.0898 45.5H34.9102V47.6647H37.0898V45.5Z" fill="#4F5180"/>
<path d="M39.2695 45.5H37.0898V47.6647H39.2695V45.5Z" fill="#4F5180"/>
<path d="M41.4492 45.5H39.2695V47.6647H41.4492V45.5Z" fill="#4F5180"/>
<path d="M43.6347 45.5H41.4551V47.6647H43.6347V45.5Z" fill="#4F5180"/>
<path d="M45.8144 45.5H43.6348V47.6647H45.8144V45.5Z" fill="#4F5180"/>
<path d="M47.9941 45.5H45.8145V47.6647H47.9941V45.5Z" fill="#2B2B2B"/>
<path d="M4.35934 47.6704H2.17969V49.8351H4.35934V47.6704Z" fill="#2B2B2B"/>
<path d="M6.54489 47.6704H4.36523V49.8351H6.54489V47.6704Z" fill="#4F5180"/>
<path d="M8.72457 47.6704H6.54492V49.8351H8.72457V47.6704Z" fill="#4F5180"/>
<path d="M10.9043 47.6704H8.72461V49.8351H10.9043V47.6704Z" fill="#4F5180"/>
<path d="M13.0898 47.6704H10.9102V49.8351H13.0898V47.6704Z" fill="#4F5180"/>
<path d="M15.2695 47.6704H13.0898V49.8351H15.2695V47.6704Z" fill="#4F5180"/>
<path d="M17.4492 47.6704H15.2695V49.8351H17.4492V47.6704Z" fill="#4F5180"/>
<path d="M19.6347 47.6704H17.4551V49.8351H19.6347V47.6704Z" fill="#4F5180"/>
<path d="M21.8144 47.6704H19.6348V49.8351H21.8144V47.6704Z" fill="#4F5180"/>
<path d="M24 47.6704H21.8203V49.8351H24V47.6704Z" fill="#4F5180"/>
<path d="M26.1797 47.6704H24V49.8351H26.1797V47.6704Z" fill="#4F5180"/>
<path d="M28.3593 47.6704H26.1797V49.8351H28.3593V47.6704Z" fill="#4F5180"/>
<path d="M30.5449 47.6704H28.3652V49.8351H30.5449V47.6704Z" fill="#4F5180"/>
<path d="M32.7246 47.6704H30.5449V49.8351H32.7246V47.6704Z" fill="#4F5180"/>
<path d="M34.9043 47.6704H32.7246V49.8351H34.9043V47.6704Z" fill="#4F5180"/>
<path d="M37.0898 47.6704H34.9102V49.8351H37.0898V47.6704Z" fill="#4F5180"/>
<path d="M39.2695 47.6704H37.0898V49.8351H39.2695V47.6704Z" fill="#4F5180"/>
<path d="M41.4492 47.6704H39.2695V49.8351H41.4492V47.6704Z" fill="#4F5180"/>
<path d="M43.6347 47.6704H41.4551V49.8351H43.6347V47.6704Z" fill="#4F5180"/>
<path d="M45.8144 47.6704H43.6348V49.8351H45.8144V47.6704Z" fill="#2B2B2B"/>
<path d="M6.54489 49.835H4.36523V51.9997H6.54489V49.835Z" fill="#2B2B2B"/>
<path d="M8.72457 49.835H6.54492V51.9997H8.72457V49.835Z" fill="#2B2B2B"/>
<path d="M10.9043 49.835H8.72461V51.9997H10.9043V49.835Z" fill="#2B2B2B"/>
<path d="M13.0898 49.835H10.9102V51.9997H13.0898V49.835Z" fill="#2B2B2B"/>
<path d="M15.2695 49.835H13.0898V51.9997H15.2695V49.835Z" fill="#2B2B2B"/>
<path d="M17.4492 49.835H15.2695V51.9997H17.4492V49.835Z" fill="#2B2B2B"/>
<path d="M19.6347 49.835H17.4551V51.9997H19.6347V49.835Z" fill="#2B2B2B"/>
<path d="M21.8144 49.835H19.6348V51.9997H21.8144V49.835Z" fill="#2B2B2B"/>
<path d="M24 49.835H21.8203V51.9997H24V49.835Z" fill="#2B2B2B"/>
<path d="M26.1797 49.835H24V51.9997H26.1797V49.835Z" fill="#2B2B2B"/>
<path d="M28.3593 49.835H26.1797V51.9997H28.3593V49.835Z" fill="#2B2B2B"/>
<path d="M30.5449 49.835H28.3652V51.9997H30.5449V49.835Z" fill="#2B2B2B"/>
<path d="M32.7246 49.835H30.5449V51.9997H32.7246V49.835Z" fill="#2B2B2B"/>
<path d="M34.9043 49.835H32.7246V51.9997H34.9043V49.835Z" fill="#2B2B2B"/>
<path d="M37.0898 49.835H34.9102V51.9997H37.0898V49.835Z" fill="#2B2B2B"/>
<path d="M39.2695 49.835H37.0898V51.9997H39.2695V49.835Z" fill="#2B2B2B"/>
<path d="M41.4492 49.835H39.2695V51.9997H41.4492V49.835Z" fill="#2B2B2B"/>
<path d="M43.6347 49.835H41.4551V51.9997H43.6347V49.835Z" fill="#2B2B2B"/>
<path d="M19.8193 9.1084H17.4551V11.4564H19.8193V9.1084Z" fill="#315000"/>
<path d="M22.1846 9.1084H19.8203V11.4564H22.1846V9.1084Z" fill="#315000"/>
<path d="M26.919 9.1084H24.5547V11.4564H26.919V9.1084Z" fill="#315000"/>
<path d="M29.2881 9.1084H26.9238V11.4564H29.2881V9.1084Z" fill="#315000"/>
<path d="M19.8193 11.4565H17.4551V13.8046H19.8193V11.4565Z" fill="#315000"/>
<path d="M22.1846 11.4565H19.8203V13.8046H22.1846V11.4565Z" fill="#315000"/>
<path d="M26.919 11.4565H24.5547V13.8046H26.919V11.4565Z" fill="#315000"/>
<path d="M29.2881 11.4565H26.9238V13.8046H29.2881V11.4565Z" fill="#315000"/>
<path d="M19.8193 13.8105H17.4551V16.1586H19.8193V13.8105Z" fill="#315000"/>
<path d="M22.1846 13.8105H19.8203V16.1586H22.1846V13.8105Z" fill="#315000"/>
<path d="M24.5537 13.8105H22.1895V16.1586H24.5537V13.8105Z" fill="#315000"/>
<path d="M26.919 13.8105H24.5547V16.1586H26.919V13.8105Z" fill="#315000"/>
<path d="M29.2881 13.8105H26.9238V16.1586H29.2881V13.8105Z" fill="#315000"/>
<path d="M19.8193 16.1582H17.4551V18.5062H19.8193V16.1582Z" fill="#315000"/>
<path d="M22.1846 16.1582H19.8203V18.5062H22.1846V16.1582Z" fill="#315000"/>
<path d="M24.5537 16.1582H22.1895V18.5062H24.5537V16.1582Z" fill="#315000"/>
<path d="M26.919 16.1582H24.5547V18.5062H26.919V16.1582Z" fill="#315000"/>
<path d="M29.2881 16.1582H26.9238V18.5062H29.2881V16.1582Z" fill="#315000"/>
<path d="M26.919 18.5122H24.5547V20.8603H26.919V18.5122Z" fill="#315000"/>
<path d="M29.2881 18.5122H26.9238V20.8603H29.2881V18.5122Z" fill="#315000"/>
<path d="M26.919 20.8604H24.5547V23.2084H26.919V20.8604Z" fill="#315000"/>
<path d="M29.2881 20.8604H26.9238V23.2084H29.2881V20.8604Z" fill="#315000"/>
<path d="M26.919 23.2085H24.5547V25.5565H26.919V23.2085Z" fill="#315000"/>
<path d="M29.2881 23.2085H26.9238V25.5565H29.2881V23.2085Z" fill="#315000"/>
</g>
<defs>
<clipPath id="clip0_1254_18773">
<rect width="48" height="52" fill="white"/>
</clipPath>
</defs>
</svg>
