<svg xmlns="http://www.w3.org/2000/svg" width="109" height="118" viewBox="0 0 109 118" fill="none">
  <mask id="mask0_5513_4547" style="mask-type:alpha" maskUnits="userSpaceOnUse" x="-9" y="0" width="118" height="118">
    <rect x="-9" width="118" height="118" fill="#D9D9D9"/>
  </mask>
  <g mask="url(#mask0_5513_4547)">
    <g opacity="0.05">
      <path fill-rule="evenodd" clip-rule="evenodd" d="M5.24619 66.5353C-2.85037 63.2984 -6.19701 53.6365 -1.8372 46.085C2.47164 38.6219 12.3496 36.6297 19.2144 41.8393L34.6139 53.5259C37.1836 50.7624 40.1686 48.3241 43.5727 46.3588C47.0384 44.3578 50.7116 42.9781 54.459 42.1384L52.03 22.8964C50.9507 14.3466 57.6151 6.78816 66.2328 6.78815C74.9524 6.78815 81.6466 14.5174 80.4015 23.1477L77.5163 43.1465C86.9548 45.9844 94.9201 51.5471 98.7726 58.2197C106.994 72.4589 97.4221 93.3759 77.394 104.939C57.366 116.502 34.4656 114.333 26.2446 100.094C22.3691 93.3813 21.5475 83.6259 23.8598 73.9767L5.24619 66.5353Z" fill="white"/>
      <path d="M-1.8372 46.085L-3.6424 45.0428L-3.6424 45.0428L-1.8372 46.085ZM5.24619 66.5353L4.4724 68.4708L4.4724 68.4708L5.24619 66.5353ZM19.2144 41.8393L20.4745 40.1788L20.4745 40.1788L19.2144 41.8393ZM34.6139 53.5259L33.3538 55.1863C34.2067 55.8336 35.4113 55.7294 36.1404 54.9453L34.6139 53.5259ZM54.459 42.1384L54.9148 44.1725C55.9635 43.9375 56.6617 42.9437 56.5271 41.8774L54.459 42.1384ZM52.03 22.8964L54.0981 22.6354L54.0981 22.6354L52.03 22.8964ZM66.2328 6.78815L66.2328 4.70368L66.2328 4.70368L66.2328 6.78815ZM80.4015 23.1477L78.3384 22.85L80.4015 23.1477ZM77.5163 43.1465L75.4532 42.8489C75.3059 43.8702 75.9279 44.8456 76.9161 45.1427L77.5163 43.1465ZM23.8598 73.9767L25.8869 74.4625C26.1281 73.4562 25.5945 72.4253 24.6336 72.0412L23.8598 73.9767ZM-3.6424 45.0428C-8.63704 53.6938 -4.8031 64.7626 4.4724 68.4708L6.01998 64.5998C-0.897638 61.8342 -3.75697 53.5791 -0.0319963 47.1273L-3.6424 45.0428ZM20.4745 40.1788C12.6102 34.2106 1.29385 36.493 -3.6424 45.0428L-0.0319963 47.1273C3.64943 40.7509 12.0891 39.0487 17.9542 43.4997L20.4745 40.1788ZM35.874 51.8654L20.4745 40.1788L17.9542 43.4997L33.3538 55.1863L35.874 51.8654ZM42.5304 44.5536C38.9355 46.6291 35.7894 49.2007 33.0874 52.1064L36.1404 54.9453C38.5778 52.3241 41.4017 50.0191 44.6149 48.164L42.5304 44.5536ZM54.0033 40.1044C50.0633 40.9872 46.1906 42.4404 42.5304 44.5536L44.6149 48.164C47.8863 46.2752 51.3598 44.969 54.9148 44.1725L54.0033 40.1044ZM49.962 23.1575L52.391 42.3995L56.5271 41.8774L54.0981 22.6354L49.962 23.1575ZM66.2328 4.70368C56.3602 4.70369 48.7255 13.3627 49.962 23.1575L54.0981 22.6354C53.176 15.3305 58.8699 8.87262 66.2327 8.87262L66.2328 4.70368ZM82.4646 23.4453C83.891 13.5584 76.222 4.70369 66.2328 4.70368L66.2327 8.87262C73.6827 8.87262 79.4022 15.4764 78.3384 22.85L82.4646 23.4453ZM79.5794 43.4442L82.4646 23.4453L78.3384 22.85L75.4532 42.8489L79.5794 43.4442ZM100.578 57.1775C96.3837 49.9131 87.896 44.0908 78.1165 41.1503L76.9161 45.1427C86.0137 47.8781 93.4566 53.1812 96.9674 59.2619L100.578 57.1775ZM78.4362 106.744C88.7813 100.772 96.5033 92.3421 100.572 83.4502C104.639 74.5635 105.114 65.0351 100.578 57.1775L96.9674 59.2619C100.652 65.6434 100.452 73.6932 96.7812 81.7155C93.1126 89.7328 86.0348 97.5434 76.3518 103.134L78.4362 106.744ZM24.4394 101.136C28.976 108.994 37.4656 113.346 47.1951 114.267C56.9301 115.19 68.0912 112.717 78.4362 106.744L76.3518 103.134C66.6688 108.724 56.3657 110.949 47.5882 110.117C38.8052 109.285 31.7341 105.433 28.0498 99.0515L24.4394 101.136ZM21.8328 73.491C19.4371 83.4879 20.2205 93.8286 24.4394 101.136L28.0498 99.0515C24.5178 92.934 23.6579 83.7638 25.8869 74.4625L21.8328 73.491ZM4.4724 68.4708L23.086 75.9123L24.6336 72.0412L6.01998 64.5998L4.4724 68.4708Z" fill="white"/>
      <path d="M46.1094 77.5273L51.138 86.2372" stroke="#1649FF" stroke-width="8.33787" stroke-linecap="round"/>
      <path d="M69.4961 64.0264L74.5247 72.7362" stroke="#1649FF" stroke-width="8.33787" stroke-linecap="round"/>
    </g>
  </g>
</svg>