<svg width="24" height="24" viewBox="0 0 24 24" fill="none" xmlns="http://www.w3.org/2000/svg">
<mask id="mask0_13_34060" style="mask-type:alpha" maskUnits="userSpaceOnUse" x="0" y="0" width="24" height="24">
<rect width="24" height="24" fill="#C4C4C4"/>
</mask>
<g mask="url(#mask0_13_34060)">
<path d="M7.40369 9.1787C7.42528 9.1787 7.44643 9.18481 7.46469 9.19633L12.681 12.4856C12.7121 12.5052 12.7507 12.5087 12.7848 12.4949L15.0236 11.5933C16.2197 11.1114 17.5542 11.1018 18.7571 11.5662C19.9601 12.0306 20.9419 12.9345 21.5039 14.0951L21.6169 14.3481L21.9562 15.1586C21.9805 15.2164 21.9536 15.283 21.896 15.3078L10.5492 20.1887C10.5349 20.1948 10.5195 20.198 10.504 20.198H2.11437C2.0512 20.198 2 20.1468 2 20.0836V18.3109C2 18.2478 2.0512 18.1966 2.11437 18.1966H10.0922C10.1078 18.1966 10.1232 18.1934 10.1374 18.1873L19.0945 14.3333C19.166 14.3025 19.1864 14.2109 19.132 14.1553C18.7536 13.7683 18.2794 13.4868 17.7563 13.3405C17.1826 13.1799 16.5746 13.1888 16.0057 13.366L15.7713 13.4518L10.1192 15.7265C10.1056 15.732 10.0911 15.7348 10.0765 15.7348H7.09221C7.02905 15.7348 6.97784 15.6836 6.97784 15.6204V13.8477C6.97784 13.7846 7.02905 13.7334 7.09221 13.7334H9.68904C9.70369 13.7334 9.71821 13.7306 9.7318 13.7251L10.2344 13.5225C10.3209 13.4876 10.3315 13.3694 10.2526 13.3197L6.88714 11.1978C6.86888 11.1862 6.84773 11.1801 6.82614 11.1801H2.11437C2.0512 11.1801 2 11.1289 2 11.0658V9.29307C2 9.2299 2.0512 9.1787 2.11437 9.1787H7.40369ZM16.0457 6.797C16.1089 6.797 16.1601 6.8482 16.1601 6.91137V8.604C16.1601 8.66717 16.1089 8.71837 16.0457 8.71837H8.90493C8.84177 8.71837 8.79056 8.66717 8.79056 8.604V6.91137C8.79056 6.8482 8.84177 6.797 8.90493 6.797H16.0457ZM16.0457 3C16.1089 3 16.1601 3.0512 16.1601 3.11437V4.80701C16.1601 4.87017 16.1089 4.92137 16.0457 4.92137H8.90493C8.84177 4.92137 8.79056 4.87017 8.79056 4.80701V3.11437C8.79056 3.0512 8.84177 3 8.90493 3H16.0457Z" fill="#FF9900"/>
</g>
</svg>
