<svg t="1653013491598" class="icon" viewBox="0 0 1024 1024" version="1.1" xmlns="http://www.w3.org/2000/svg" p-id="4021" width="200" height="200"><path d="M515.41333333 6.59911111c-276.48 0-500.62222222 224.14222222-500.62222222 500.62222222s224.14222222 500.62222222 500.62222222 500.62222222 500.62222222-224.14222222 500.62222222-500.62222222-224.14222222-500.62222222-500.62222222-500.62222222z m225.28 660.82133334c19.56977778 19.56977778 19.56977778 51.2 0 70.76977777-19.56977778 19.56977778-51.2 19.56977778-70.76977778 0L515.41333333 583.68 361.01688889 738.19022222c-19.56977778 19.56977778-51.2 19.56977778-70.76977778 0-19.56977778-19.56977778-19.56977778-51.2 0-70.76977777l154.51022222-154.51022223L290.13333333 358.4c-19.56977778-19.56977778-19.56977778-51.2 0-70.76977778 19.56977778-19.56977778 51.2-19.56977778 70.76977778 0L515.41333333 442.14044445l154.51022222-154.51022223c19.56977778-19.56977778 51.2-19.56977778 70.76977778 0 19.56977778 19.56977778 19.56977778 51.2 0 70.76977778L586.29688889 512.91022222 740.69333333 667.42044445z" p-id="4022"></path></svg>