<svg width="26" height="20" viewBox="0 0 26 20" fill="none" xmlns="http://www.w3.org/2000/svg">
<path fill-rule="evenodd" clip-rule="evenodd" d="M14.6164 0.946133L23.0911 5.26954C23.4827 5.46933 23.4888 6.03735 23.1016 6.24585L12.0949 12.1729C11.4812 12.5034 10.749 12.5116 10.1283 12.195L3.21772 8.66946C2.37582 8.32436 1.43448 8.95463 1.43448 9.90399C1.43448 10.6673 1.85713 11.365 2.52623 11.7064L9.45467 15.2409C9.87761 14.8016 10.4665 14.529 11.1178 14.529C11.7505 14.529 12.3243 14.7862 12.7443 15.2037L21.3739 10.5566C21.3503 10.4208 21.338 10.2809 21.338 10.1381C21.338 8.82456 22.3816 7.75975 23.669 7.75975C24.9564 7.75975 26 8.82456 26 10.1381C26 11.4517 24.9564 12.5165 23.669 12.5165C23.0395 12.5165 22.4683 12.2619 22.0488 11.8481L13.4144 16.4978C13.437 16.6309 13.4488 16.7677 13.4488 16.9074C13.4488 18.2209 12.4052 19.2858 11.1178 19.2858C9.83044 19.2858 8.78679 18.2209 8.78679 16.9074C8.78679 16.7859 8.79571 16.6666 8.81296 16.5499L1.78416 12.9642C0.690708 12.4064 0 11.2661 0 10.0187V9.32395C0 8.37398 0.515303 7.50203 1.33873 7.05868L12.6498 0.96818C13.2635 0.637703 13.9957 0.629494 14.6164 0.946133ZM11.1178 17.8222C11.613 17.8222 12.0144 17.4126 12.0144 16.9074C12.0144 16.4022 11.613 15.9927 11.1178 15.9927C10.6227 15.9927 10.2213 16.4022 10.2213 16.9074C10.2213 17.4126 10.6227 17.8222 11.1178 17.8222ZM24.5655 10.1381C24.5655 10.6433 24.1641 11.0529 23.669 11.0529C23.1738 11.0529 22.7724 10.6433 22.7724 10.1381C22.7724 9.63289 23.1738 9.22334 23.669 9.22334C24.1641 9.22334 24.5655 9.63289 24.5655 10.1381Z" fill="white" />
</svg>
