<svg width="32" height="32" viewBox="0 0 32 32" fill="none" xmlns="http://www.w3.org/2000/svg">
<mask id="mask0_2897_2058" style="mask-type:alpha" maskUnits="userSpaceOnUse" x="0" y="0" width="32" height="32">
<rect width="32" height="32" fill="#D9D9D9"/>
</mask>
<g mask="url(#mask0_2897_2058)">
<path d="M25.4167 8.09133C26.393 6.31879 25.2772 4 25.2772 4C22.7669 4 20.9529 5.63619 20.9529 5.63619C19.9767 5.09079 16.7681 5.09079 16.7681 5.09079C16.7681 5.09079 13.5595 5.09079 12.5833 5.63619C12.5833 5.63619 10.7702 4 8.25895 4C8.25895 4 7.14322 6.31793 8.11948 8.09133C8.11948 8.09133 5.88803 10.1366 6.72483 14.5006C7.51162 18.6014 11.1886 19.6827 13.5595 19.6827C13.5595 19.6827 12.5833 20.5008 12.7227 21.8643C12.7227 21.8643 11.3281 22.6824 9.93341 22.137C8.53876 21.5916 7.84143 20.2281 7.84143 20.2281C7.84143 20.2281 6.44677 18.4556 5.05212 19.1373C5.05212 19.1373 4.63372 19.5464 6.16784 20.2281C6.16784 20.2281 7.28357 21.8643 7.70196 22.8187C8.12036 23.7732 10.3518 24.5913 12.5841 24.0459V27.1819C12.5841 27.1819 12.5841 27.4546 12.0263 27.591C11.4684 27.7273 11.4684 28 11.7473 28H21.7906C22.0695 28 22.0695 27.7273 21.5117 27.591C20.9538 27.4546 20.9538 27.1819 20.9538 27.1819V24.0459C20.9538 24.0459 20.9661 22.4105 20.9538 21.8643C20.9231 20.4939 19.9776 19.6827 19.9776 19.6827C22.3485 19.6827 26.0254 18.6014 26.8122 14.5006C27.649 10.1366 25.4176 8.09133 25.4176 8.09133H25.4167Z" fill="white"/>
</g>
</svg>
