<svg version="1.2" xmlns="http://www.w3.org/2000/svg" viewBox="0 0 30 30" width="30" height="30">
	<title>Mask group-svg</title>
	<defs>
		<clipPath clipPathUnits="userSpaceOnUse" id="cp1">
			<path d="m0 0h30v30h-30z"/>
		</clipPath>
	</defs>
	<style>
		.s0 { fill: #ffffff } 
		.s1 { fill: none;stroke: #ffffff;stroke-linejoin: round;stroke-width: 1.3 } 
	</style>
	<g id="Clip-Path" clip-path="url(#cp1)">
		<g id="Layer">
			<path id="Layer" class="s0" d="m16.9 2.5h0.7c0-0.3-0.3-0.6-0.7-0.6zm-3.7 0v-0.7c-0.3 0-0.6 0.3-0.6 0.7zm0 3.1v0.6c0.3 0 0.6-0.3 0.6-0.6zm-3.3 0h-0.7c0 0.3 0.3 0.6 0.7 0.6zm0-3.1h0.6c0-0.3-0.3-0.6-0.6-0.6zm-3.3 0v-0.7c-0.3 0-0.6 0.3-0.6 0.7zm0 5.6h-0.6c0 0.3 0.2 0.6 0.6 0.6zm16.9 0v0.7c0.4 0 0.7-0.3 0.7-0.7zm0-5.6h0.6c0-0.3-0.3-0.6-0.6-0.6zm-3.3 0v-0.7c-0.4 0-0.6 0.3-0.6 0.7zm0 3.1v0.6c0.3 0 0.6-0.3 0.6-0.6zm-3.4 0h-0.6c0 0.3 0.3 0.6 0.6 0.6zm0-3.7h-3.7v1.2h3.7zm-4.3 0.7v3.1h1.2v-3.1zm0.7 2.4h-3.4v1.3h3.4zm-2.8 0.6v-3.1h-1.2v3.1zm-0.6-3.7h-3.3v1.2h3.3zm-3.9 0.7v5.6h1.2v-5.6zm0.7 6.2h16.9v-1.2h-16.9zm17.5-0.7v-5.6h-1.2v5.6zm-0.6-6.2h-3.3v1.2h3.3zm-3.9 0.7v3.1h1.2v-3.1zm0.6 2.4h-3.3v1.3h3.3zm-2.7 0.6v-3.1h-1.2v3.1z"/>
			<path id="Layer" class="s1" d="m9.2 8.1h11.6l1.7 11.9h-15z"/>
			<path id="Layer" class="s1" d="m6.1 20h18v2.6h-18z"/>
			<path id="Layer" class="s1" d="m6 22.6h18.1l1.1 2.1v2.8h-20.2v-2.8z"/>
		</g>
	</g>
</svg>