<svg xmlns="http://www.w3.org/2000/svg" viewBox="0 0 32 32" width="177" height="177" style="border-color: rgba(0,0,0,0);border-width: bpx;border-style: undefined" filter="none">
    
    <g>
    <path d="M2.144 23.744c0.544 0.032 0.992 0.064 1.472 0.096 0.448 0 0.928 0.032 1.376 0.064 0.032-0.992 0.032-1.92 0.064-2.88 1.024 0.064 1.952 0.096 2.912 0.16 0.032-1.024 0.032-1.952 0.064-2.912 1.024 0.064 1.952 0.096 2.944 0.128 0-0.512 0-1.024 0.032-1.504 0-0.64 0.032-1.28 0.064-1.92 0.032-0.192 0.128-0.416 0.256-0.544 0.608-0.64 1.28-1.248 1.952-1.856 0.192-0.16 0.224-0.32 0.192-0.608-0.576-3.296 0.448-6.048 3.072-8.16 2.688-2.144 6.752-2.24 9.632-0.288 4.032 2.688 5.056 8 2.208 11.904-2.016 2.816-5.376 3.968-8.768 3.136-0.288-0.096-0.448-0.064-0.672 0.16-3.872 3.648-7.744 7.264-11.616 10.912-0.171 0.159-0.402 0.257-0.655 0.257-0.017 0-0.035-0-0.052-0.001l0.002 0c-0.917-0.050-2.155-0.096-3.398-0.125l-0.154-0.003c-0.864-0.064-1.088-0.288-1.056-1.184 0.032-1.568 0.096-3.168 0.128-4.832zM22.72 9.504c0.832 0.896 2.24 0.96 3.136 0.16 0.896-0.864 0.928-2.24 0.064-3.136s-2.272-0.96-3.136-0.128c-0.864 0.8-0.896 2.24-0.064 3.104z" fill="rgba(163.965,172.89000000000001,179.01,1)"></path>
    </g>
  </svg>