<svg width="24" height="24" viewBox="0 0 24 24" fill="none" xmlns="http://www.w3.org/2000/svg">
<mask id="mask0_14_34061" style="mask-type:alpha" maskUnits="userSpaceOnUse" x="0" y="0" width="24" height="24">
<rect width="24" height="24" fill="#C4C4C4"/>
</mask>
<g mask="url(#mask0_14_34061)">
<path d="M15.9975 19.4946C16.015 19.4946 16.0317 19.5016 16.044 19.5139L18.4824 21.9535C18.5588 22.0299 18.6827 22.03 18.7592 21.9536L19.6663 21.0468C19.7427 20.9704 19.7428 20.8464 19.6663 20.77L18.5033 19.6068C18.4619 19.5654 18.4912 19.4946 18.5497 19.4946H20.8693C20.9774 19.4946 21.065 19.407 21.065 19.2989V4.13072C21.065 4.02263 20.9774 3.935 20.8693 3.935H3.13072C3.02263 3.935 2.935 4.02263 2.935 4.13072V19.2989C2.935 19.407 3.02263 19.4946 3.13072 19.4946H5.44928C5.50782 19.4946 5.53714 19.5654 5.49576 19.6068L4.33313 20.77C4.2567 20.8464 4.25674 20.9704 4.33322 21.0468L5.24081 21.9536C5.31729 22.03 5.44122 22.0299 5.51762 21.9534L7.9544 19.5139C7.96673 19.5016 7.98345 19.4946 8.0009 19.4946H15.9975ZM4.60868 5.674C4.60868 5.63771 4.6381 5.60828 4.6744 5.60828H19.3267C19.363 5.60828 19.3924 5.63771 19.3924 5.674V17.7562C19.3924 17.7925 19.363 17.8219 19.3267 17.8219H4.6744C4.6381 17.8219 4.60868 17.7925 4.60868 17.7562V5.674ZM7.50261 7.79214C7.39452 7.79214 7.30689 7.87977 7.30689 7.98786V15.4418C7.30689 15.5499 7.39452 15.6375 7.50261 15.6375H8.78379C8.89188 15.6375 8.97951 15.5499 8.97951 15.4418V7.98786C8.97951 7.87977 8.89188 7.79214 8.78379 7.79214H7.50261ZM15.2167 11.6498C15.1087 11.6498 15.021 11.7374 15.021 11.8455V15.4418C15.021 15.5499 15.1087 15.6375 15.2167 15.6375H16.4979C16.606 15.6375 16.6936 15.5499 16.6936 15.4418V11.8455C16.6936 11.7374 16.606 11.6498 16.4979 11.6498H15.2167ZM11.3594 9.72098C11.2513 9.72098 11.1637 9.80861 11.1637 9.9167V15.4418C11.1637 15.5499 11.2513 15.6375 11.3594 15.6375H12.6417C12.7497 15.6375 12.8374 15.5499 12.8374 15.4418V9.9167C12.8374 9.80861 12.7497 9.72098 12.6417 9.72098H11.3594Z" fill="#FF9900" stroke="#FF9900" stroke-width="0.13"/>
</g>
</svg>
