<svg xmlns="http://www.w3.org/2000/svg" width="30" height="30" viewBox="0 0 30 30" fill="none">
	<style>
		.s0 { fill: #ffffff; stroke-linejoin: round;stroke-width: 1.3 } 
	</style>
	<path class="s0" d="M21.9254 26C21.635 25.9999 21.356 25.8648 21.0962 25.5983C20.8854 25.3818 20.7828 25.1396 20.7916 24.8785C20.8039 24.5151 21.0305 24.2151 21.1566 24.0754L19.2299 22.2073L18.061 23.2591C17.8536 23.4329 17.6211 23.5198 17.3668 23.5198C16.6497 23.5198 16.0111 22.8283 15.9844 22.7988C15.039 21.9045 15.7784 20.9202 15.7859 20.9104C15.7886 20.9069 15.7916 20.9034 15.7948 20.9002L16.6681 20.0152L15.0037 18.5643L13.3948 20.0658L14.0912 20.753C14.3795 21.0222 14.8153 21.6964 14.3852 22.306C14.1091 22.6974 13.3863 23.6079 12.642 23.6079C12.4282 23.6079 12.2302 23.5333 12.0535 23.3865C11.5084 22.9332 10.9786 22.4124 10.7826 22.2163L8.85157 24.084C8.9715 24.2168 9.17888 24.4945 9.19676 24.8434C9.21081 25.1175 9.10616 25.3769 8.88585 25.6143C8.67139 25.8532 8.40792 25.975 8.10376 25.975C7.72957 25.975 7.43272 25.7849 7.42024 25.7768C7.41383 25.7727 7.40799 25.768 7.40259 25.7627C7.37831 25.7386 4.96526 23.3572 4.52779 22.8904L4.44214 22.8C4.04109 22.3786 3.72434 22.0458 4.36683 21.244C4.5732 20.9865 4.82746 20.8558 5.1224 20.8558C5.48389 20.8558 5.80536 21.0569 5.95159 21.1644L7.84568 19.3122L7.34763 18.8205C6.6414 18.1667 6.54047 17.6525 6.52777 17.5614C6.2671 16.7101 7.38146 15.9481 7.47914 15.8834C7.75104 15.6625 8.04014 15.5506 8.33868 15.5506C8.84527 15.5506 9.19204 15.8743 9.20653 15.888L10.0466 16.7167L11.3219 15.329C10.7952 14.867 7.96191 12.3811 6.69165 11.2578C5.27122 10.0016 5.03529 9.22859 5.02596 9.19632C5.02405 9.18955 5.0227 9.18279 5.02202 9.1758C5.01236 9.06999 4.78306 6.57505 4.76474 5.83771C4.75855 5.58772 4.82903 5.38652 4.97414 5.23968C5.19996 5.01153 5.52514 5 5.58797 5C5.59168 5 5.59988 5.00022 5.60359 5.00055C5.61764 5.00189 7.02009 5.13698 8.34149 5.2084C9.64457 5.27905 10.0727 5.85102 10.1317 5.94008L15.0095 11.3434C15.5946 10.6959 19.049 6.8724 19.7074 6.1243C20.399 5.33828 20.9829 5.29846 21.0928 5.29846C21.0937 5.29846 21.0964 5.29846 21.0996 5.29857C21.2919 5.27938 24.011 5.00909 24.5788 5.00011L24.5929 5C25.1245 5 25.2925 5.47714 25.307 5.72935C25.3074 5.73434 25.3073 5.73933 25.3069 5.74432C25.3047 5.77194 25.0858 8.5151 25.004 9.22371C24.9196 9.95584 24.1198 10.5338 24.0361 10.5925L18.643 15.3622L19.9943 16.728C20.2042 16.5178 20.7579 15.967 20.9337 15.8309C21.1609 15.6552 21.407 15.5662 21.665 15.5662C22.091 15.5662 22.5289 15.8055 22.9666 16.2777C24.0072 17.4005 23.2657 18.1867 23.2582 18.1944L22.1608 19.2941L24.0874 21.2204C24.3265 21.0066 24.5032 20.9404 24.5418 20.9275C24.6511 20.8835 24.7639 20.8609 24.8771 20.8609C25.2876 20.8609 25.5786 21.1504 25.6223 21.1964C26.3147 21.7955 25.8442 22.5158 25.8394 22.5229C25.8353 22.5289 25.8307 22.5345 25.8257 22.5396C25.7982 22.567 23.0809 25.2841 22.8282 25.5514C22.6696 25.7192 22.3416 26 21.9254 26ZM19.8116 21.1025C19.8907 21.1806 21.044 22.3183 21.8707 23.1253C22.3333 23.5768 22.3895 24.022 22.3294 24.3551L24.1298 22.542C24.0786 22.5509 24.0289 22.5552 23.9806 22.5552C23.6437 22.5552 23.4631 22.3403 23.4069 22.2316L21.2185 20.1283C20.8995 19.8113 20.7407 19.5198 20.7451 19.2608C20.7487 19.0524 20.8585 18.9444 20.871 18.9329C20.877 18.9265 21.7992 17.9989 22.1538 17.6581C22.2592 17.5568 22.3131 17.4633 22.3099 17.3878C22.3074 17.3265 22.2658 17.2922 22.2641 17.2907C22.2521 17.281 22.2399 17.2671 22.2329 17.2532C22.2328 17.2532 22.171 17.1497 21.9014 16.9156C21.8332 16.8565 21.768 16.8266 21.7078 16.8266C21.6137 16.8266 21.5496 16.9014 21.549 16.9022C21.5467 16.9047 21.5436 16.9084 21.5412 16.9107C21.5032 16.9482 17.7361 20.6651 17.1905 21.1675L17.1123 21.2391C16.6301 21.6812 16.6113 21.6985 16.9426 22.0824C17.0632 22.2222 17.182 22.2929 17.2959 22.2929C17.4313 22.2929 17.5231 22.1916 17.5238 22.1907C17.5268 22.1873 17.5298 22.1841 17.5331 22.1812C17.5389 22.1759 18.1237 21.6431 18.656 21.0913C18.8361 20.9043 19.0293 20.8096 19.2301 20.8096C19.5533 20.8097 19.775 21.0586 19.8116 21.1025ZM7.47374 24.0957C7.47307 24.0806 7.47273 24.0655 7.47307 24.05C7.47666 23.83 7.5812 23.6241 7.78408 23.4378C8.36734 22.9024 10.2593 21.0225 10.2783 21.0037C10.2863 20.9955 10.5013 20.7795 10.7923 20.7795C10.9517 20.7795 11.1002 20.8426 11.2335 20.9674C11.6287 21.337 12.5465 22.2223 12.5557 22.2312C12.5601 22.2355 12.6203 22.2936 12.7175 22.2936C12.8148 22.2936 12.9196 22.2368 13.029 22.1249C13.0341 22.1197 13.0398 22.1149 13.0457 22.1108C13.1152 22.063 13.2991 21.9051 13.3162 21.7502C13.3233 21.6869 13.3007 21.6282 13.2473 21.571C12.9846 21.2894 10.7132 19.0914 9.9974 18.3994C9.99155 18.3956 9.98604 18.3912 9.98099 18.3862L8.64149 17.0741C8.50807 16.9275 8.38667 16.8524 8.28607 16.8524C8.15906 16.8524 8.08555 16.9756 8.08487 16.9769C8.07802 16.9888 8.06902 16.9995 8.05835 17.0082C7.86861 17.1628 7.76464 17.3116 7.76565 17.4272C7.76644 17.5112 7.82331 17.5569 7.82567 17.5588C7.83455 17.5658 7.84411 17.5754 7.85051 17.5846C7.85231 17.5871 8.05194 17.8696 8.80695 18.5708C9.11954 18.8612 9.26813 19.1434 9.24835 19.4096C9.22879 19.6733 9.04771 19.8257 9.00466 19.8584C8.91609 19.9434 7.71878 21.0915 6.94748 21.8612C6.63668 22.1715 6.27981 22.3287 5.88696 22.3287C5.79434 22.3287 5.70712 22.3199 5.62697 22.3056L7.47374 24.0957ZM12.5209 19.1362L14.368 17.45C14.3743 17.443 14.6611 17.1446 15.0228 17.1446C15.1848 17.1446 15.3345 17.2033 15.4679 17.3191C15.8346 17.637 17.0847 18.7161 17.5521 19.1194L19.1032 17.5475C18.8466 17.2885 18.0101 16.4404 17.5342 15.9101C17.3229 15.6747 17.2299 15.4397 17.2578 15.2114C17.2922 14.9296 17.5022 14.7608 17.5463 14.7282C17.7874 14.5053 21.9592 10.6506 22.9274 9.95428C23.8274 9.30679 23.7993 8.84706 23.7989 8.84251C23.7983 8.83575 23.7981 8.82654 23.7988 8.81977L24.0606 6.24797C23.5704 6.29389 21.9293 6.44495 21.4544 6.45282C20.9694 6.46081 20.778 6.74341 20.7762 6.74629C20.7732 6.75095 20.7697 6.75539 20.7659 6.7596L16.0115 12.0387C15.6965 12.5306 15.3581 12.78 15.0054 12.78C14.6894 12.78 14.4898 12.5721 14.4815 12.5632C14.2704 12.3297 9.34636 6.87961 9.1709 6.6427C9.07694 6.51571 8.82774 6.47068 8.64295 6.47068C8.64295 6.47068 8.62114 6.47101 8.61968 6.47101C8.61586 6.47101 8.61215 6.4709 8.60833 6.47046L6.00689 6.21204C6.02971 6.55619 6.09333 7.51579 6.14504 8.31702C6.2036 9.22571 6.47347 9.44598 6.47617 9.44809C6.52934 9.49467 11.0255 13.4813 12.0483 14.3119C12.5172 14.6927 12.7562 15.0433 12.7583 15.3539C12.7598 15.5684 12.6474 15.6869 12.6157 15.7162L10.9085 17.5567L12.5209 19.1362Z" fill="white"/>
</svg>