<svg width="34" height="27" viewBox="0 0 34 27" fill="none" xmlns="http://www.w3.org/2000/svg">
<path d="M28.3334 26.6666H5C2.24336 26.6666 0 24.4233 0 21.6666V13.83C0 12.9333 0.24168 12.0533 0.69668 11.2816L6.41504 1.63332C6.71145 1.13661 7.13143 0.725104 7.63408 0.438877C8.13673 0.15265 8.70493 0.00145122 9.28336 0H24.0517C25.2234 0 26.3217 0.62664 26.9184 1.635L32.6367 11.2816C33.0917 12.0533 33.3334 12.935 33.3334 13.83V21.6666C33.3334 24.4233 31.09 26.6666 28.3334 26.6666ZM3.33336 15V21.6666C3.33336 22.5866 4.08168 23.3333 5 23.3333H28.3334C28.7754 23.3333 29.1993 23.1577 29.5119 22.8451C29.8244 22.5326 30 22.1087 30 21.6666V15H23.3417L20.875 17.7733C20.7185 17.9494 20.5265 18.0903 20.3117 18.1868C20.0968 18.2833 19.8639 18.3333 19.6284 18.3333H13.7034C13.4678 18.3334 13.2349 18.2835 13.02 18.187C12.8051 18.0905 12.6131 17.9495 12.4567 17.7733L9.99172 15H3.33336ZM14.4517 15H18.88L21.3467 12.225C21.5035 12.0495 21.6956 11.909 21.9104 11.8128C22.1253 11.7166 22.358 11.6668 22.5934 11.6666H28.99L24.05 3.33332H9.28336L7.85 2.48332L9.28336 3.33332L4.345 11.6666H10.7417C10.9771 11.6666 11.2099 11.7163 11.4247 11.8126C11.6396 11.9088 11.8316 12.0493 11.9884 12.225L14.4517 15Z" fill="#E8E8EC"/>
</svg>
