<svg xmlns="http://www.w3.org/2000/svg" width="24" height="24" viewBox="0 0 24 24" fill="none">
	<style>
		.s1 { fill: #4D2700;stroke: none;stroke-linecap: round;stroke-linejoin: round;stroke-width: 1.3 } 
	</style>
  <path d="M12 22C14.7614 22 17.2614 20.8807 19.0711 19.0711C20.8807 17.2614 22 14.7614 22 12C22 9.2386 20.8807 6.7386 19.0711 4.92893C17.2614 3.11929 14.7614 2 12 2C9.2386 2 6.7386 3.11929 4.92893 4.92893C3.11929 6.7386 2 9.2386 2 12C2 14.7614 3.11929 17.2614 4.92893 19.0711C6.7386 20.8807 9.2386 22 12 22Z" fill="white" stroke="#4D2700"/>
  <path d="M12 14.3124V12.3124C13.6568 12.3124 15 10.9692 15 9.31238C15 7.65553 13.6568 6.31238 12 6.31238C10.3432 6.31238 9 7.65553 9 9.31238" stroke="#4D2700" stroke-width="2" stroke-linecap="round" stroke-linejoin="round"/>
  <path class="s1" fill-rule="evenodd" clip-rule="evenodd" d="M12 18.8124C12.6904 18.8124 13.25 18.2527 13.25 17.5624C13.25 16.872 12.6904 16.3124 12 16.3124C11.3097 16.3124 10.75 16.872 10.75 17.5624C10.75 18.2527 11.3097 18.8124 12 18.8124Z" fill="#4D2700"/>
</svg>