<svg width="64" height="64" viewBox="0 0 64 64" fill="none" xmlns="http://www.w3.org/2000/svg">
<path fill-rule="evenodd" clip-rule="evenodd" d="M32 60C47.464 60 60 47.464 60 32C60 16.536 47.464 4 32 4C16.536 4 4 16.536 4 32C4 47.464 16.536 60 32 60ZM32 64C49.6731 64 64 49.6731 64 32C64 14.3269 49.6731 0 32 0C14.3269 0 0 14.3269 0 32C0 49.6731 14.3269 64 32 64Z" fill="#FF9900"/>
<path d="M56 10H8V58H56V10Z" fill="white" fill-opacity="0.01"/>
<path fill-rule="evenodd" clip-rule="evenodd" d="M33.4144 18.5858C32.6333 17.8047 31.367 17.8047 30.5859 18.5858L18.5859 30.5858L21.4144 33.4142L30 24.8286V47H34V24.8283L42.5859 33.4142L45.4144 30.5858L33.4144 18.5858Z" fill="#FF9900"/>
</svg>
