<svg version="1.2" xmlns="http://www.w3.org/2000/svg" viewBox="0 0 30 30" width="30" height="30">
	<title>shope-svg</title>
	<style>
		.s0 { fill: none;stroke: #ffffff;stroke-linecap: round;stroke-linejoin: round;stroke-width: 1.3 } 
	</style>
	<path id="Layer" class="s0" d="m2.5 7.5h25v5l-0.9 0.5c-1.4 0.9-3.1 0.9-4.5 0l-0.8-0.5-0.9 0.5c-1.4 0.9-3.1 0.9-4.5 0l-0.9-0.5-0.9 0.5c-1.4 0.9-3.1 0.9-4.5 0l-0.8-0.5-0.9 0.5c-1.4 0.9-3.1 0.9-4.5 0l-0.9-0.5z"/>
	<path id="Layer" class="s0" d="m5 14.1v13.4h20v-13.8"/>
	<path id="Layer" class="s0" d="m5 7.4v-4.9h20v5"/>
	<path id="Layer" class="s0" d="m18.1 20h-6.2v7.5h6.2z"/>
</svg>