<svg width="20" height="20" viewBox="0 0 20 20" fill="none" xmlns="http://www.w3.org/2000/svg">
<path d="M9.81234 6.54205C8.01011 6.54205 6.53935 8.0128 6.53935 9.81504C6.53935 11.6173 8.01011 13.088 9.81234 13.088C11.6146 13.088 13.0853 11.6173 13.0853 9.81504C13.0853 8.0128 11.6146 6.54205 9.81234 6.54205ZM19.6289 9.81504C19.6289 8.45968 19.6411 7.1166 19.565 5.7637C19.4889 4.19227 19.1304 2.79763 17.9813 1.64852C16.8297 0.496957 15.4376 0.14093 13.8661 0.0648137C12.5108 -0.0113023 11.1677 0.000974471 9.81479 0.000974471C8.45943 0.000974471 7.11635 -0.0113023 5.76345 0.0648137C4.19202 0.14093 2.79738 0.499412 1.64828 1.64852C0.496713 2.80008 0.140686 4.19227 0.0645696 5.7637C-0.0115465 7.11905 0.000730315 8.46214 0.000730337 9.81504C0.000730358 11.1679 -0.0115465 12.5135 0.0645696 13.8664C0.140686 15.4378 0.499168 16.8324 1.64828 17.9816C2.79984 19.1331 4.19202 19.4891 5.76345 19.5653C7.11881 19.6414 8.46189 19.6291 9.81479 19.6291C11.1701 19.6291 12.5132 19.6414 13.8661 19.5653C15.4376 19.4891 16.8322 19.1307 17.9813 17.9816C19.1329 16.83 19.4889 15.4378 19.565 13.8664C19.6436 12.5135 19.6289 11.1704 19.6289 9.81504ZM9.81234 14.851C7.02551 14.851 4.7764 12.6019 4.7764 9.81504C4.7764 7.02821 7.02551 4.7791 9.81234 4.7791C12.5992 4.7791 14.8483 7.02821 14.8483 9.81504C14.8483 12.6019 12.5992 14.851 9.81234 14.851ZM15.0545 5.74897C14.4039 5.74897 13.8784 5.22352 13.8784 4.57285C13.8784 3.92218 14.4039 3.39673 15.0545 3.39673C15.7052 3.39673 16.2306 3.92218 16.2306 4.57285C16.2308 4.72735 16.2005 4.88038 16.1415 5.02316C16.0825 5.16594 15.9958 5.29567 15.8866 5.40492C15.7773 5.51417 15.6476 5.6008 15.5048 5.65983C15.3621 5.71887 15.209 5.74916 15.0545 5.74897Z" fill="white"/>
</svg>
