<svg version="1.2" xmlns="http://www.w3.org/2000/svg" viewBox="0 0 30 30" width="30" height="30">
	<title>home-svg</title>
	<style>
		.s0 { fill: #ffffff } 
		.s1 { fill: none;stroke: #ffffff;stroke-width: 1.3 } 
	</style>
	<path id="Layer" fill-rule="evenodd" class="s0" d="m3 10.3l10-5.7c0.2-0.1 0.5 0 0.7 0.2l0.3 0.5h1.4l-0.6-1.1c-0.5-0.9-1.6-1.2-2.5-0.7l-9.9 5.8c-0.8 0.5-1.1 1.5-0.6 2.4l8.3 14.5c0.5 0.8 1.6 1.1 2.5 0.6l2.1-1.2h-2.3q-0.1 0-0.2 0l-0.3 0.2c-0.2 0.1-0.5 0-0.7-0.2l-8.4-14.5c-0.1-0.3 0-0.6 0.2-0.8z"/>
	<path id="Layer" class="s1" d="m22.5 26.7c-3.3 0-6-2.7-6-6 0-3.3 2.7-6 6-6 3.3 0 6 2.7 6 6 0 3.3-2.7 6-6 6z"/>
	<path id="Layer" fill-rule="evenodd" class="s0" d="m12.4 6.5h11.4c0.3 0 0.5 0.3 0.5 0.6v7.3q0.7 0.2 1.3 0.5v-7.8c0-1-0.8-1.8-1.8-1.8h-11.4c-1 0-1.8 0.8-1.8 1.8v16.7c0 1 0.8 1.8 1.8 1.8h5.6q-0.6-0.6-1.1-1.3h-4.5c-0.3 0-0.6-0.2-0.6-0.5v-16.7c0-0.3 0.3-0.6 0.6-0.6z"/>
	<path id="Layer" class="s0" d="m20.4 19.3h1c0.1-0.5 0.4-0.8 1.1-0.8 0.7 0 1.1 0.3 1.1 0.8 0 0.7-0.6 0.9-1.5 0.9h-0.3v0.8h0.3c1.1 0 1.6 0.3 1.6 1.1 0 0.5-0.4 0.9-1.1 0.9-0.8 0-1.3-0.4-1.3-0.9h-1c0.1 1.1 1 1.7 2.3 1.7 1.4 0 2.1-0.7 2.1-1.7 0-0.8-0.4-1.3-1.1-1.5 0.5-0.2 1-0.7 1-1.4 0-0.9-0.7-1.6-2-1.6-1.3 0-2.1 0.6-2.2 1.7z"/>
</svg>