<svg width="30" height="30" viewBox="0 0 30 30" fill="none" xmlns="http://www.w3.org/2000/svg">
<g id="Mask group">
<mask id="mask0_3928_3397" style="mask-type:alpha" maskUnits="userSpaceOnUse" x="0" y="0" width="30" height="30">
<rect id="Rectangle 543583" width="30" height="30" fill="#D9D9D9"/>
</mask>
<g mask="url(#mask0_3928_3397)">
<g id="Group 3463">
<path id="Rectangle 543582" d="M4.46289 16.2699V4.74918C4.46289 4.04997 5.02971 3.48315 5.72892 3.48315H9.36109M7.14997 25.9532H13.717M16.0318 3.48315H20.3056C20.9781 3.48315 21.5233 4.02832 21.5233 4.70082V4.70082" stroke="white" stroke-width="1.25"/>
<g id="Union">
<mask id="path-3-inside-1_3928_3397" fill="white">
<path d="M19.7406 15.3343L14.8853 19.5951L11.8793 13.9001L16.9632 9.84115L19.7406 15.3343Z"/>
</mask>
<path d="M19.7406 15.3343L20.4002 16.0859C20.743 15.785 20.8388 15.2902 20.633 14.8831L19.7406 15.3343ZM14.8853 19.5951L14.0009 20.0619C14.1438 20.3326 14.4028 20.5229 14.7039 20.5785C15.0049 20.634 15.3148 20.5486 15.5449 20.3467L14.8853 19.5951ZM11.8793 13.9001L11.2553 13.1186C10.8801 13.4182 10.7707 13.9422 10.9949 14.3669L11.8793 13.9001ZM16.9632 9.84115L17.8556 9.38994C17.7197 9.12129 17.4701 8.92813 17.176 8.86406C16.8818 8.8 16.5745 8.87185 16.3392 9.05967L16.9632 9.84115ZM19.081 14.5827L14.2257 18.8434L15.5449 20.3467L20.4002 16.0859L19.081 14.5827ZM15.7696 19.1283L12.7636 13.4333L10.9949 14.3669L14.0009 20.0619L15.7696 19.1283ZM12.5032 14.6815L17.5871 10.6226L16.3392 9.05967L11.2553 13.1186L12.5032 14.6815ZM16.0707 10.2924L18.8482 15.7855L20.633 14.8831L17.8556 9.38994L16.0707 10.2924Z" fill="white" mask="url(#path-3-inside-1_3928_3397)"/>
</g>
<g id="Group 3342">
<path id="Vector 362" d="M2.20801 19.0543L4.03884 19.6951" stroke="white" stroke-width="1.25"/>
<path id="Vector 360" d="M3.33496 24.0437L4.6921 23.0316" stroke="white" stroke-width="1.25"/>
<path id="Vector 358" d="M8.18824 25.746L7.86621 24.1588" stroke="white" stroke-width="1.25"/>
<path id="Vector 354" d="M10.9953 17.3062L9.70215 18.2662" stroke="white" stroke-width="1.25"/>
<g id="Mask group_2">
<path id="Vector 352" d="M6.0127 15.7427L6.33112 17.4216" stroke="white" stroke-width="1.25"/>
</g>
</g>
<path id="Ellipse 906" d="M12.4222 20.7421C12.4222 23.6201 10.0891 25.9532 7.21109 25.9532C4.33309 25.9532 2 23.6201 2 20.7421C2 17.8641 4.33309 15.531 7.21109 15.531C10.0891 15.531 12.4222 17.8641 12.4222 20.7421Z" stroke="white" stroke-width="1.25"/>
<path id="Vector 356" d="M11.9746 22.6159L10.4463 21.9694" stroke="white" stroke-width="1.25"/>
<circle id="Ellipse 907" cx="7.21142" cy="20.7421" r="3.23486" stroke="white" stroke-width="1.25"/>
<path id="Rectangle 543581" d="M6.68917 15.6457L9.60859 3.23241C9.76867 2.55177 10.4502 2.12977 11.1308 2.28984L25.2733 5.61594C25.954 5.77602 26.376 6.45755 26.2159 7.13819L21.6527 26.541C21.4921 27.2239 20.8069 27.6459 20.1247 27.4822L9.95235 25.0403" stroke="white" stroke-width="1.25"/>
<path id="A" d="M10.8 6.73788L10.8686 6.75488L10.9075 6.69598L11.2791 6.13408L12.1141 6.34121L12.18 7.01162L12.1869 7.0819L12.2554 7.0989L12.5606 7.1746L12.6996 7.20909L12.6841 7.06669L12.3977 4.444L12.3902 4.3746L12.3224 4.3578L12.0219 4.28326L11.9542 4.26645L11.915 4.32427L10.4362 6.50906L10.3559 6.62769L10.4949 6.66218L10.8 6.73788ZM11.9884 5.06155L12.0657 5.84904L11.5519 5.72158L11.9884 5.06155Z" fill="white" stroke="white" stroke-width="0.2"/>
<path id="A_2" d="M20.2097 23.0887L20.1412 23.0717L20.1022 23.1306L19.7307 23.6925L18.8957 23.4853L18.8298 22.8149L18.8229 22.7446L18.7543 22.7276L18.4492 22.6519L18.3101 22.6174L18.3257 22.7599L18.612 25.3825L18.6196 25.4519L18.6874 25.4687L18.9878 25.5433L19.0556 25.5601L19.0947 25.5023L20.5736 23.3175L20.6539 23.1988L20.5149 23.1644L20.2097 23.0887ZM19.0214 24.765L18.944 23.9775L19.4579 24.105L19.0214 24.765Z" fill="white" stroke="white" stroke-width="0.2"/>
</g>
</g>
</g>
</svg>
