<svg t="1653276705447" class="icon" viewBox="0 0 1076 1024" version="1.1" xmlns="http://www.w3.org/2000/svg" p-id="2982" width="200" height="200"><path d="M1074.977 463.141l1.763 1.396q-0.869-0.735-1.763-1.396zM0 465.15l3.184-2.523c-3.822 2.659-6.942 6.058-9.205 10.009z" p-id="2983"></path><path d="M111.983 994.893c-0.282 1.886-0.576 3.759-0.833 5.657 0.53-2.012 0.843-4.326 0.86-6.71zM83.758 1021.833zM55.569 991.477q0.306-2.118 0.637-4.237c-0.43 1.794-0.687 3.859-0.71 5.981z" p-id="2984"></path><path d="M1021.931 984.901c0.355 2.216 0.673 4.445 0.992 6.674-0.088-2.676-0.521-5.217-1.258-7.625zM965.272 999.46c-0.245-1.751-0.502-3.49-0.771-5.229 0.137 2.393 0.541 4.636 1.182 6.776z" p-id="2985"></path><path d="M538.634 0c-282.327 0-512 229.673-512 512s229.673 512 512 512 512-229.673 512-512-229.673-512-512-512zM538.634 950.516c-241.808 0-438.528-196.757-438.528-438.528s196.721-438.516 438.528-438.516 438.528 196.721 438.528 438.528-196.757 438.528-438.528 438.528z" p-id="2986"></path><path d="M748.554 305.446c-6.631-6.706-15.832-10.858-26.003-10.858-10.025 0-19.107 4.034-25.712 10.568l-158.353 156.638-155.944-156.458c-6.621-6.639-15.777-10.747-25.893-10.747-20.195 0-36.566 16.371-36.566 36.566 0 10.079 4.078 19.206 10.674 25.82l155.723 156.249-156.997 155.258c-6.704 6.632-10.856 15.833-10.856 26.003 0 20.197 16.373 36.571 36.571 36.571 10.027 0 19.112-4.036 25.718-10.571l157.214-155.512 158.466 159.030c6.568 6.345 15.524 10.255 25.393 10.255 20.194 0 36.564-16.37 36.564-36.564 0-9.814-3.867-18.726-10.16-25.293l-158.27-158.833 158.136-156.409c6.706-6.631 10.858-15.832 10.858-26.003 0-10.025-4.034-19.107-10.568-25.712z" p-id="2987"></path></svg>