<svg width="20" height="20" viewBox="0 0 20 20" fill="none" xmlns="http://www.w3.org/2000/svg">
<path fill-rule="evenodd" clip-rule="evenodd" d="M1.5999 14.7999L1.73985 14.7918C2.29075 14.7278 2.72784 14.2907 2.79183 13.7398L2.7999 13.5999V2.7999H13.5999L13.7398 2.79183C14.3367 2.72251 14.7999 2.21531 14.7999 1.5999C14.7999 0.984499 14.3367 0.477294 13.7398 0.407976L13.5999 0.399902H1.5999L1.45996 0.407976C0.909059 0.471962 0.471962 0.909059 0.407976 1.45996L0.399902 1.5999V13.5999L0.407976 13.7398C0.471962 14.2907 0.909059 14.7278 1.45996 14.7918L1.5999 14.7999ZM18.4 19.6L18.5399 19.5919C19.0908 19.5279 19.5279 19.0908 19.5919 18.5399L19.6 18.4V6.4L19.5919 6.26006C19.5333 5.75506 19.1611 5.3457 18.6751 5.23169L18.5399 5.20807L18.4 5.2H6.4L6.26006 5.20807C5.70916 5.27206 5.27206 5.70916 5.20807 6.26006L5.2 6.4V18.4L5.20807 18.5399C5.26673 19.0449 5.6389 19.4543 6.12485 19.5683L6.26006 19.5919L6.4 19.6H18.4ZM7.6 7.6V17.2H17.2V7.6H7.6Z" fill="#8D8B9E"/>
</svg>
