<svg width="32" height="33" viewBox="0 0 32 33" fill="none" xmlns="http://www.w3.org/2000/svg">
<g id="Mask Group">
<mask id="mask0_5033_4498" style="mask-type:alpha" maskUnits="userSpaceOnUse" x="0" y="0" width="32" height="33">
<rect id="Rectangle 1030" y="0.603027" width="32" height="32" fill="#C4C4C4"/>
</mask>
<g mask="url(#mask0_5033_4498)">
<path id="Vector" d="M26.4353 6.94251C26.427 6.92625 26.4132 6.91351 26.3964 6.90657C24.4513 6.00858 22.3987 5.36823 20.2899 5.00157C20.2707 4.99799 20.251 5.00057 20.2333 5.00896C20.2157 5.01735 20.2012 5.03111 20.1918 5.04829C19.9123 5.55875 19.6586 6.08308 19.4316 6.61928C17.1584 6.27206 14.8462 6.27206 12.5731 6.61928C12.3446 6.08172 12.0868 5.55726 11.8009 5.04829C11.7911 5.03148 11.7765 5.01804 11.759 5.0097C11.7415 5.00137 11.7219 4.99854 11.7027 5.00157C9.59374 5.36746 7.541 6.00785 5.59618 6.90662C5.57953 6.91373 5.56549 6.92585 5.55598 6.94133C1.66673 12.7857 0.601318 18.4864 1.12397 24.1165C1.12544 24.1303 1.12966 24.1436 1.13636 24.1558C1.14307 24.1679 1.15213 24.1785 1.163 24.1871C3.42768 25.8744 5.96074 27.1623 8.6541 27.9959C8.67307 28.0016 8.69332 28.0014 8.71214 27.9951C8.73096 27.9889 8.74744 27.9771 8.75936 27.9612C9.33783 27.1692 9.8504 26.3305 10.2919 25.4537C10.2979 25.4416 10.3014 25.4284 10.302 25.415C10.3027 25.4015 10.3004 25.388 10.2955 25.3755C10.2906 25.3629 10.2831 25.3516 10.2735 25.3421C10.2639 25.3327 10.2525 25.3254 10.2399 25.3208C9.43158 25.0096 8.64906 24.6344 7.89966 24.1989C7.88605 24.1908 7.87461 24.1795 7.86637 24.166C7.85813 24.1524 7.85333 24.137 7.85239 24.1212C7.85146 24.1053 7.85442 24.0895 7.86102 24.075C7.86762 24.0606 7.87765 24.048 7.89022 24.0384C8.04791 23.9199 8.20287 23.7977 8.35497 23.672C8.36831 23.6609 8.38445 23.6538 8.40158 23.6515C8.4187 23.6492 8.43614 23.6517 8.45191 23.6588C13.3616 25.9135 18.6769 25.9135 23.5285 23.6588C23.5443 23.6513 23.5619 23.6484 23.5793 23.6505C23.5967 23.6526 23.6131 23.6597 23.6267 23.6708C23.7789 23.7972 23.9343 23.9197 24.0926 24.0384C24.1052 24.0479 24.1153 24.0604 24.122 24.0748C24.1287 24.0892 24.1318 24.105 24.131 24.1208C24.1302 24.1367 24.1255 24.1521 24.1174 24.1657C24.1092 24.1793 24.0979 24.1907 24.0843 24.1989C23.3366 24.6381 22.5534 25.013 21.743 25.3196C21.7304 25.3244 21.719 25.3319 21.7094 25.3414C21.6999 25.351 21.6925 25.3625 21.6877 25.3752C21.6828 25.3878 21.6807 25.4013 21.6815 25.4149C21.6822 25.4284 21.6858 25.4416 21.692 25.4537C22.1408 26.3256 22.6526 27.1632 23.2233 27.9598C23.2349 27.9761 23.2513 27.9884 23.2702 27.9948C23.289 28.0013 23.3095 28.0016 23.3285 27.9957C26.0267 27.165 28.5642 25.8769 30.8317 24.1871C30.8428 24.179 30.852 24.1686 30.8587 24.1566C30.8654 24.1446 30.8695 24.1314 30.8708 24.1177C31.4965 17.6087 29.8232 11.9547 26.4353 6.94251ZM11.0251 20.6883C9.54691 20.6883 8.32895 19.3234 8.32895 17.647C8.32895 15.9707 9.52329 14.6056 11.0251 14.6056C12.5386 14.6056 13.7448 15.9826 13.7212 17.6469C13.7212 19.3234 12.5268 20.6883 11.0251 20.6883ZM20.9935 20.6883C19.5154 20.6883 18.2974 19.3234 18.2974 17.647C18.2974 15.9707 19.4917 14.6056 20.9935 14.6056C22.5071 14.6056 23.7132 15.9826 23.6896 17.6469C23.6896 19.3234 22.5071 20.6883 20.9935 20.6883Z" fill="white"/>
</g>
</g>
</svg>
