<svg width="24" height="24" viewBox="0 0 24 24" fill="none" xmlns="http://www.w3.org/2000/svg">
<path d="M24 0H0V24H24V0Z" fill="white" fill-opacity="0.01"/>
<path d="M12 1.5V3.075" stroke="#B3B2C2" stroke-width="2" stroke-linecap="round" stroke-linejoin="round"/>
<path fill-rule="evenodd" clip-rule="evenodd" d="M19.4247 4.5752L18.311 5.68887L19.4247 4.5752Z" fill="#B3B2C2"/>
<path d="M19.4247 4.5752L18.311 5.68887" stroke="#B3B2C2" stroke-width="2" stroke-linecap="round" stroke-linejoin="round"/>
<path d="M22.4998 12H20.9248" stroke="#B3B2C2" stroke-width="2" stroke-linecap="round" stroke-linejoin="round"/>
<path fill-rule="evenodd" clip-rule="evenodd" d="M19.4247 19.4247L18.311 18.311L19.4247 19.4247Z" fill="#B3B2C2"/>
<path d="M19.4247 19.4247L18.311 18.311" stroke="#B3B2C2" stroke-width="2" stroke-linecap="round" stroke-linejoin="round"/>
<path d="M12 22.4998V20.9248" stroke="#B3B2C2" stroke-width="2" stroke-linecap="round" stroke-linejoin="round"/>
<path fill-rule="evenodd" clip-rule="evenodd" d="M4.5752 19.4247L5.68887 18.311L4.5752 19.4247Z" fill="#B3B2C2"/>
<path d="M4.5752 19.4247L5.68887 18.311" stroke="#B3B2C2" stroke-width="2" stroke-linecap="round" stroke-linejoin="round"/>
<path d="M1.5 12H3.075" stroke="#B3B2C2" stroke-width="2" stroke-linecap="round" stroke-linejoin="round"/>
<path fill-rule="evenodd" clip-rule="evenodd" d="M4.5752 4.5752L5.68887 5.68887L4.5752 4.5752Z" fill="#B3B2C2"/>
<path d="M4.5752 4.5752L5.68887 5.68887" stroke="#B3B2C2" stroke-width="2" stroke-linecap="round" stroke-linejoin="round"/>
<path d="M12 18C15.3137 18 18 15.3137 18 12C18 8.6863 15.3137 6 12 6C8.6863 6 6 8.6863 6 12C6 15.3137 8.6863 18 12 18Z" fill="#B3B2C2" stroke="#B3B2C2" stroke-width="2" stroke-linejoin="round"/>
</svg>
