<svg width="14" height="14" viewBox="0 0 14 14" fill="none" xmlns="http://www.w3.org/2000/svg">
<path fill-rule="evenodd" clip-rule="evenodd" d="M3.0001 0.600586H4.6001C5.04193 0.600586 5.4001 0.958758 5.4001 1.40059C5.4001 1.81085 5.09127 2.14899 4.69339 2.1952L4.6001 2.20059H3.0001C2.58983 2.20059 2.25169 2.50942 2.20548 2.90729L2.2001 3.00059V11.0006C2.2001 11.4109 2.50893 11.749 2.9068 11.7952L3.0001 11.8006H11.0001C11.4104 11.8006 11.7485 11.4918 11.7947 11.0939L11.8001 11.0006V9.40059C11.8001 8.95876 12.1583 8.60059 12.6001 8.60059C13.0104 8.60059 13.3485 8.90942 13.3947 9.30729L13.4001 9.40059V11.0006C13.4001 12.2787 12.401 13.3235 11.1411 13.3965L11.0001 13.4006H3.0001C1.72195 13.4006 0.677169 12.4015 0.604172 11.1416L0.600098 11.0006V3.00059C0.600098 1.72244 1.59923 0.677657 2.85908 0.60466L3.0001 0.600586H4.6001H3.0001ZM12.6001 0.600586L12.6649 0.602986L12.7607 0.616778L12.8498 0.640376L12.9387 0.675525L13.0167 0.717382L13.0935 0.770815L13.1658 0.834901L13.243 0.924341L13.3004 1.01334L13.3252 1.06211L13.3522 1.12727L13.3714 1.18779L13.3946 1.30611L13.4001 1.40059V4.60059C13.4001 5.04241 13.0419 5.40059 12.6001 5.40059C12.1583 5.40059 11.8001 5.04241 11.8001 4.60059V3.33179L8.36578 6.76627C8.0774 7.05466 7.62361 7.07684 7.30978 6.83282L7.23441 6.76627C6.94603 6.47788 6.92384 6.0241 7.16786 5.71027L7.23441 5.6349L10.6673 2.20059H9.4001C8.95827 2.20059 8.6001 1.84241 8.6001 1.40059C8.6001 0.958758 8.95827 0.600586 9.4001 0.600586H12.6001Z" fill="#B3B2C2"/>
</svg>
