<svg width="62" height="62" viewBox="0 0 62 62"  xmlns="http://www.w3.org/2000/svg" > 
<path d="M30.9999 0.802734C22.9911 0.802734 15.3104 3.98421 9.64728 9.64728C3.98421 15.3104 0.802734 22.9911 0.802734 30.9999C0.802734 39.0087 3.98421 46.6895 9.64728 52.3525C15.3104 58.0156 22.9911 61.1971 30.9999 61.1971C39.0087 61.1971 46.6895 58.0156 52.3525 52.3525C58.0156 46.6895 61.1971 39.0087 61.1971 30.9999C61.1971 22.9911 58.0156 15.3104 52.3525 9.64728C46.6895 3.98421 39.0087 0.802734 30.9999 0.802734ZM30.9999 6.29313C37.5526 6.29313 43.8368 8.89616 48.4702 13.5296C53.1037 18.163 55.7067 24.4473 55.7067 30.9999C55.7067 37.5526 53.1037 43.8368 48.4702 48.4702C43.8368 53.1037 37.5526 55.7067 30.9999 55.7067C24.4473 55.7067 18.163 53.1037 13.5296 48.4702C8.89616 43.8368 6.29313 37.5526 6.29313 30.9999C6.29313 24.4473 8.89616 18.163 13.5296 13.5296C18.163 8.89616 24.4473 6.29313 30.9999 6.29313V6.29313Z" fill="#1649FF" fill-opacity="0.1"/> 
<path d="M58.6289 18.8315C60.6277 23.3413 61.4811 28.2645 61.115 33.1737C60.749 38.0829 59.1747 42.8297 56.5287 47.0021C53.8827 51.1745 50.2449 54.6464 45.9313 57.1164C41.6176 59.5864 36.7584 60.9798 31.7755 61.1757L30.5498 61.1977V55.6985C34.5903 55.6997 38.5712 54.7369 42.1535 52.8921C45.7357 51.0473 48.8132 48.3753 51.1238 45.1035C53.4344 41.8318 54.9097 38.0572 55.4239 34.1014C55.9381 30.1456 55.4761 26.1257 54.0772 22.3841L53.5312 21.0367L58.6345 18.837L58.6289 18.8315Z" fill="#1649FF"> 
<animateTransform attributeName="transform" type="rotate" from="0 30.9999 30.9999" to="360 30.9999 30.9999" dur="1s" repeatCount="indefinite" /> </path>
 </svg>