<svg width="32" height="32" viewBox="0 0 32 32" fill="none" xmlns="http://www.w3.org/2000/svg">
<mask id="mask0_2897_2055" style="mask-type:alpha" maskUnits="userSpaceOnUse" x="0" y="0" width="32" height="32">
<rect width="32" height="32" fill="#C4C4C4"/>
</mask>
<g mask="url(#mask0_2897_2055)">
<path d="M27.0046 7.58527L29 5.46448V5H22.0892L17.1641 18.6249L11.5618 5H4.31576V5.46448L6.64648 8.58265C6.87435 8.81309 6.99154 9.15155 6.96224 9.49002V21.743C7.03385 22.1859 6.9069 22.636 6.62695 22.9565L4 26.4959V26.9532H11.4414V26.4887L8.81771 22.9601C8.53276 22.6401 8.39913 22.1913 8.45638 21.7466V11.1463L14.9896 26.9604H15.748L21.3665 11.1463V23.745C21.3665 24.0763 21.3665 24.1447 21.1712 24.3643L19.1497 26.5355V27H28.9544V26.5355L27.0046 24.4147C26.8353 24.2707 26.7474 24.0295 26.7832 23.7954V8.20458C26.7489 7.96888 26.8338 7.73128 27.0046 7.58527Z" fill="white"/>
</g>
</svg>
