<svg version="1.2" xmlns="http://www.w3.org/2000/svg" viewBox="0 0 16 16" width="16" height="16">
	<title>note-svg</title>
	<defs>
		<clipPath clipPathUnits="userSpaceOnUse" id="cp1">
			<path d="m0 0h16v16h-16z"/>
		</clipPath>
	</defs>
	<style>
		.s0 { fill: none;stroke: #eeeeee;stroke-linejoin: round;stroke-width: 1.3 } 
		.s1 { fill: #eeeeee } 
		.s2 { fill: none;stroke: #eeeeee;stroke-linecap: round;stroke-linejoin: round;stroke-width: 1.3 } 
	</style>
	<g id="Clip-Path" clip-path="url(#cp1)">
		<g id="Layer" style="opacity: .6">
			<path id="Layer" class="s0" d="m8 14.7c1.8 0 3.5-0.8 4.7-2 1.2-1.2 2-2.9 2-4.7 0-1.8-0.8-3.5-2-4.7-1.2-1.2-2.9-2-4.7-2-1.8 0-3.5 0.8-4.7 2-1.2 1.2-2 2.9-2 4.7 0 1.8 0.8 3.5 2 4.7 1.2 1.2 2.9 2 4.7 2z"/>
			<path id="Layer" fill-rule="evenodd" class="s1" d="m8 12.3c0.5 0 0.8-0.3 0.8-0.8 0-0.5-0.3-0.8-0.8-0.8-0.5 0-0.8 0.3-0.8 0.8 0 0.5 0.3 0.8 0.8 0.8z"/>
			<path id="Layer" class="s2" d="m8 4v5.3"/>
		</g>
	</g>
</svg>