<svg width="20" height="20" viewBox="0 0 20 20" fill="none" xmlns="http://www.w3.org/2000/svg">
<path d="M5.96092 6.47715H15.941C16.1685 6.47715 16.3867 6.56752 16.5475 6.72839C16.7084 6.88925 16.7988 7.10744 16.7988 7.33494C16.7988 7.56243 16.7084 7.78062 16.5475 7.94148C16.3867 8.10235 16.1685 8.19272 15.941 8.19272H4.15499C3.96221 8.19293 3.77373 8.13583 3.61349 8.02866C3.45325 7.9215 3.32848 7.76911 3.25505 7.59087C3.18162 7.41263 3.16284 7.21658 3.2011 7.02764C3.23935 6.8387 3.33292 6.6654 3.4699 6.52976L6.59682 3.43029C6.67687 3.35099 6.77176 3.28823 6.87607 3.2456C6.98038 3.20297 7.09206 3.1813 7.20475 3.18183C7.31743 3.18236 7.4289 3.20508 7.5328 3.24869C7.63671 3.29231 7.731 3.35596 7.8103 3.43601C7.88961 3.51606 7.95236 3.61095 7.99499 3.71526C8.03763 3.81957 8.05929 3.93125 8.05876 4.04393C8.05823 4.15662 8.03551 4.26809 7.9919 4.37199C7.94829 4.47589 7.88464 4.57019 7.80458 4.64949L5.96206 6.47715H5.96092ZM14.0401 13.3017H4.05892C3.83142 13.3017 3.61324 13.2113 3.45237 13.0505C3.2915 12.8896 3.20113 12.6714 3.20113 12.4439C3.20113 12.2164 3.2915 11.9982 3.45237 11.8374C3.61324 11.6765 3.83142 11.5861 4.05892 11.5861H15.846C16.0387 11.5861 16.227 11.6434 16.3871 11.7507C16.5472 11.8579 16.6718 12.0103 16.7451 12.1885C16.8183 12.3667 16.837 12.5627 16.7987 12.7515C16.7604 12.9403 16.6669 13.1135 16.53 13.2491L13.4031 16.3474C13.3235 16.4288 13.2285 16.4936 13.1236 16.5379C13.0188 16.5822 12.9062 16.6052 12.7923 16.6056C12.6785 16.606 12.5657 16.5836 12.4606 16.54C12.3554 16.4963 12.26 16.4321 12.18 16.3512C12.0999 16.2703 12.0367 16.1742 11.9941 16.0687C11.9515 15.9631 11.9304 15.8501 11.9319 15.7363C11.9335 15.6224 11.9577 15.51 12.0031 15.4056C12.0485 15.3012 12.1142 15.2069 12.1965 15.1282L14.0401 13.3017Z" fill="white" fill-opacity="0.8"/>
</svg>
