<svg width="23" height="16" viewBox="0 0 23 16" fill="none" xmlns="http://www.w3.org/2000/svg">
<path d="M9.41176 11.2941V4.70588L15.0588 8.01129L9.41176 11.2941ZM22.3624 3.45129C22.3624 3.45129 22.1412 1.88424 21.4645 1.19341C20.6052 0.287059 19.6424 0.283294 19.2009 0.230588C16.0405 -2.10369e-07 11.2988 0 11.2988 0H11.2894C11.2894 0 6.54776 -2.10369e-07 3.38729 0.230588C2.94494 0.283294 1.98306 0.287059 1.12282 1.19341C0.446118 1.88424 0.225882 3.45224 0.225882 3.45224C0.225882 3.45224 0 5.29129 0 7.13129V8.85835C0 10.6993 0.225882 12.5402 0.225882 12.5402C0.225882 12.5402 0.446118 14.1073 1.12282 14.7981C1.98306 15.7045 3.11153 15.6753 3.61412 15.7704C5.42118 15.9464 11.2941 16 11.2941 16C11.2941 16 16.0405 15.9925 19.2009 15.7628C19.6433 15.7092 20.6052 15.7054 21.4645 14.7991C22.1421 14.1082 22.3624 12.5402 22.3624 12.5402C22.3624 12.5402 22.5882 10.7002 22.5882 8.85929V7.13318C22.5882 5.29224 22.3624 3.45129 22.3624 3.45129V3.45129Z" fill="white"/>
</svg>
