<svg width="256" height="256" viewBox="0 0 320 320" fill="none" xmlns="http://www.w3.org/2000/svg">
  <svg y="46" x="32" width="256" height="228" viewBox="0 0 256 228">
    <path
      d="M248.256 183.861L204.803 124.823C200.082 118.408 193.092 114.565 185.648 113.718C183.954 113.521 182.441 112.538 181.593 111.055C180.731 109.572 180.64 107.772 181.321 106.198C184.302 99.3294 184.483 91.3558 181.276 84.0631L151.878 16.916C147.521 6.94525 137.671 0.514984 126.792 0.514984C115.914 0.514984 106.064 6.96038 101.707 16.916L72.3091 84.0631C69.1166 91.3558 69.2831 99.3294 72.2637 106.198C72.9445 107.772 72.8386 109.572 71.9913 111.055C71.1289 112.538 69.631 113.521 67.9364 113.718C60.4925 114.565 53.5024 118.408 48.7819 124.823L5.32833 183.861C-1.11707 192.621 -1.76767 204.362 3.66402 213.788C9.11084 223.199 19.6111 228.51 30.4139 227.315L103.265 219.205C111.178 218.327 118.002 214.197 122.45 208.175C123.464 206.798 125.083 205.981 126.792 205.981C128.502 205.981 130.106 206.798 131.135 208.175C135.583 214.197 142.407 218.327 150.32 219.205L223.171 227.315C233.974 228.525 244.474 223.214 249.921 213.788C255.352 204.362 254.702 192.621 248.256 183.861ZM91.3124 92.4906L120.755 25.2678C121.815 22.8621 124.19 21.3037 126.807 21.3037C129.425 21.3037 131.8 22.8621 132.86 25.2678L162.303 92.4906C163.226 94.6088 163.029 97.0598 161.758 98.9965C160.487 100.933 158.339 102.098 156.009 102.098H97.5914C95.2765 102.098 93.1129 100.933 91.842 98.9965C90.571 97.0598 90.3743 94.6088 91.2972 92.4906H91.3124ZM106.427 194.83C105.383 196.903 103.356 198.295 101.056 198.552L28.1293 206.662C25.5269 206.949 22.9851 205.679 21.6688 203.409C20.3524 201.139 20.5189 198.31 22.0773 196.192L65.5762 137.094C66.953 135.233 69.162 134.174 71.4769 134.31C73.7918 134.431 75.8797 135.717 77.0448 137.729L77.0902 137.805L106.216 188.249L106.261 188.324C107.426 190.337 107.486 192.788 106.442 194.845L106.427 194.83ZM132.784 172.014C131.543 174.147 129.274 175.479 126.792 175.479C124.326 175.479 122.042 174.163 120.801 172.029L98.4235 133.281C97.1829 131.148 97.1829 128.5 98.4235 126.367C99.6642 124.233 101.934 122.902 104.415 122.902H149.155C151.621 122.902 153.905 124.203 155.146 126.352C156.387 128.5 156.387 131.133 155.146 133.266L132.784 172.014ZM231.931 203.409C230.615 205.679 228.088 206.965 225.471 206.677L152.544 198.567C150.244 198.31 148.217 196.918 147.173 194.845C146.129 192.773 146.189 190.321 147.354 188.324L147.4 188.249L176.525 137.805L176.57 137.729C177.735 135.717 179.823 134.431 182.138 134.31C184.453 134.189 186.662 135.233 188.039 137.094L231.538 196.192C233.096 198.31 233.247 201.139 231.946 203.409H231.931Z"
      fill="#E81899" />
  </svg>
</svg>